<?xml version="1.0" encoding="iso-8859-1"?>
<!-- Generator: Adobe Illustrator 17.0.0, SVG Export Plug-In . SVG Version: 6.00 Build 0)  -->
<!DOCTYPE svg PUBLIC "-//W3C//DTD SVG 1.1//EN" "http://www.w3.org/Graphics/SVG/1.1/DTD/svg11.dtd">
<svg version="1.1" xmlns="http://www.w3.org/2000/svg" xmlns:xlink="http://www.w3.org/1999/xlink" x="0px" y="0px" width="160px"
	 height="90px" viewBox="0 0 160 90" style="enable-background:new 0 0 160 90;" xml:space="preserve">
<g id="Layer_1">
	<g>
		<g>
			<polygon style="fill:#E9C23B;" points="86.75,43.543 75.09,35.77 82.216,30.588 95.82,40.305 			"/>
			<polygon style="fill:#D2884D;" points="75.09,39.657 67.317,35.122 70.556,21.519 78.329,27.349 			"/>
			<polygon style="fill:#3785B9;" points="83.512,20.871 69.26,20.223 74.442,13.097 89.342,14.393 			"/>
			<polygon style="fill:#E9C23B;" points="90.475,11.64 88.694,23.462 98.411,26.701 99.058,15.688 			"/>
			<polygon style="fill:#3785B9;" points="92.581,36.418 88.694,27.996 102.297,27.349 103.593,33.827 			"/>
		</g>
		<g>
			<g>
				<path style="fill:#3785B9;" d="M13.146,73.706l2.184-3.108c1.316,1.372,3.36,2.548,5.936,2.548c2.212,0,3.248-0.98,3.248-2.072
					c0-3.248-10.752-0.98-10.752-8.008c0-3.108,2.688-5.684,7.084-5.684c2.968,0,5.432,0.896,7.28,2.604l-2.212,2.968
					c-1.512-1.4-3.528-2.044-5.432-2.044c-1.68,0-2.632,0.728-2.632,1.848c0,2.94,10.724,0.952,10.724,7.924
					c0,3.416-2.464,5.992-7.476,5.992C17.486,76.674,14.91,75.47,13.146,73.706z"/>
				<path style="fill:#3785B9;" d="M31.487,72.95v-7.028h-2.24v-3.108h2.24v-3.696h3.556v3.696h2.744v3.108h-2.744v6.076
					c0,0.868,0.448,1.512,1.232,1.512c0.532,0,1.036-0.196,1.232-0.42l0.756,2.716c-0.532,0.476-1.484,0.868-2.968,0.868
					C32.803,76.674,31.487,75.386,31.487,72.95z"/>
				<path style="fill:#3785B9;" d="M40.222,76.338V62.814h3.556v1.82c0.98-1.176,2.632-2.156,4.312-2.156v3.472
					c-0.252-0.056-0.56-0.084-0.98-0.084c-1.176,0-2.744,0.672-3.332,1.54v8.932H40.222z"/>
				<path style="fill:#3785B9;" d="M58.422,76.338V74.91c-0.924,1.12-2.52,1.764-4.284,1.764c-2.156,0-4.676-1.456-4.676-4.48
					c0-3.192,2.52-4.368,4.676-4.368c1.82,0,3.388,0.588,4.284,1.652V67.77c0-1.372-1.176-2.268-2.968-2.268
					c-1.428,0-2.772,0.56-3.892,1.596l-1.4-2.492c1.652-1.484,3.78-2.128,5.908-2.128c3.108,0,5.936,1.232,5.936,5.124v8.736H58.422
					z M58.422,73.09v-1.68c-0.588-0.784-1.708-1.204-2.856-1.204c-1.4,0-2.548,0.756-2.548,2.044s1.148,2.016,2.548,2.016
					C56.714,74.266,57.834,73.874,58.422,73.09z"/>
				<path style="fill:#3785B9;" d="M66.234,72.95v-7.028h-2.24v-3.108h2.24v-3.696h3.556v3.696h2.744v3.108h-2.744v6.076
					c0,0.868,0.448,1.512,1.232,1.512c0.532,0,1.036-0.196,1.232-0.42l0.756,2.716c-0.532,0.476-1.484,0.868-2.968,0.868
					C67.55,76.674,66.234,75.386,66.234,72.95z"/>
				<path style="fill:#3785B9;" d="M83.089,76.338V74.91c-0.924,1.12-2.52,1.764-4.284,1.764c-2.156,0-4.676-1.456-4.676-4.48
					c0-3.192,2.52-4.368,4.676-4.368c1.82,0,3.388,0.588,4.284,1.652V67.77c0-1.372-1.176-2.268-2.968-2.268
					c-1.428,0-2.772,0.56-3.892,1.596l-1.4-2.492c1.652-1.484,3.78-2.128,5.908-2.128c3.108,0,5.936,1.232,5.936,5.124v8.736H83.089
					z M83.089,73.09v-1.68c-0.588-0.784-1.708-1.204-2.856-1.204c-1.4,0-2.548,0.756-2.548,2.044s1.148,2.016,2.548,2.016
					C81.381,74.266,82.501,73.874,83.089,73.09z"/>
				<path style="fill:#3785B9;" d="M99.47,76.338v-1.736c-1.064,1.344-2.52,2.072-4.172,2.072c-3.388,0-5.992-2.576-5.992-7.112
					c0-4.396,2.548-7.084,5.992-7.084c1.596,0,3.108,0.672,4.172,2.072v-6.888h3.584v18.676H99.47z M99.47,71.97v-4.788
					c-0.588-0.896-1.876-1.54-3.052-1.54c-2.044,0-3.444,1.596-3.444,3.92c0,2.352,1.4,3.948,3.444,3.948
					C97.594,73.51,98.882,72.866,99.47,71.97z"/>
				<path style="fill:#3785B9;" d="M106.246,59.23c0-1.176,0.952-2.1,2.1-2.1c1.176,0,2.128,0.924,2.128,2.1
					s-0.952,2.128-2.128,2.128C107.198,61.358,106.246,60.406,106.246,59.23z M106.582,76.338V62.814h3.556v13.524H106.582z"/>
				<path style="fill:#3785B9;" d="M113.385,79.81l1.596-2.548c1.092,1.176,2.548,1.652,4.228,1.652
					c1.708,0,3.752-0.728,3.752-3.472v-1.316c-1.064,1.344-2.52,2.1-4.2,2.1c-3.36,0-5.964-2.352-5.964-6.86
					c0-4.424,2.548-6.888,5.964-6.888c1.624,0,3.108,0.672,4.2,2.072v-1.736h3.556v12.628c0,5.124-3.976,6.384-7.308,6.384
					C116.913,81.826,115.093,81.294,113.385,79.81z M122.961,71.55v-4.396c-0.616-0.868-1.904-1.512-3.052-1.512
					c-2.044,0-3.444,1.4-3.444,3.724c0,2.324,1.4,3.724,3.444,3.724C121.057,73.09,122.345,72.418,122.961,71.55z"/>
				<path style="fill:#3785B9;" d="M146.817,76.338v-8.54c0-1.26-0.56-2.156-2.016-2.156c-1.26,0-2.296,0.84-2.8,1.568v9.128h-3.584
					v-8.54c0-1.26-0.56-2.156-2.016-2.156c-1.232,0-2.268,0.84-2.8,1.568v9.128h-3.556V62.814h3.556v1.736
					c0.588-0.784,2.352-2.072,4.424-2.072c1.988,0,3.276,0.924,3.752,2.436c0.784-1.204,2.576-2.436,4.648-2.436
					c2.492,0,3.976,1.316,3.976,4.088v9.772H146.817z"/>
			</g>
		</g>
	</g>
</g>
<g id="Layer_2">
</g>
</svg>
