<?xml version="1.0" encoding="iso-8859-1"?>
<!-- Generator: Adobe Illustrator 17.0.0, SVG Export Plug-In . SVG Version: 6.00 Build 0)  -->
<!DOCTYPE svg PUBLIC "-//W3C//DTD SVG 1.1//EN" "http://www.w3.org/Graphics/SVG/1.1/DTD/svg11.dtd">
<svg version="1.1" id="Layer_1" xmlns="http://www.w3.org/2000/svg" xmlns:xlink="http://www.w3.org/1999/xlink" x="0px" y="0px"
	 width="130px" height="130px" viewBox="0 0 130 130" style="enable-background:new 0 0 130 130;" xml:space="preserve">
<path style="opacity:0.8;fill:#CCCCCC;" d="M96.783,108L96.783,108H33.217l0,0c-5.164,0-9.348-4.184-9.348-9.348V23.87
	c0-1.032,0.836-1.87,1.87-1.87l0,0h63.565l0,0c0.774,0,1.44,0.471,1.724,1.142c0.093,0.223,0.146,0.469,0.146,0.727l0,0v26.174
	h13.087c1.034,0,1.869,0.838,1.869,1.87v46.739C106.13,103.816,101.946,108,96.783,108z M87.435,98.652V25.739H27.609v72.913l0,0
	l0,0c0,3.098,2.513,5.609,5.609,5.609h56.128C88.164,102.694,87.435,100.767,87.435,98.652z M102.391,53.783H91.174v44.87
	c0,3.098,2.511,5.609,5.609,5.609s5.609-2.511,5.609-5.609V53.783z M33.217,94.913c0-1.032,0.836-1.869,1.87-1.869h16.826
	c1.034,0,1.87,0.838,1.87,1.869c0,1.034-0.836,1.87-1.87,1.87H35.087C34.053,96.783,33.217,95.947,33.217,94.913z M41.941,64.467
	c-0.712,0.712-1.868,0.712-2.582,0c-0.712-0.712-0.712-1.87,0-2.582l11.04-11.04c0.06-0.088,0.099-0.189,0.178-0.267
	c0.368-0.368,0.854-0.539,1.337-0.527c0.482-0.011,0.969,0.157,1.337,0.527c0.078,0.078,0.116,0.18,0.178,0.267l7.833,7.833
	l4.094-4.094c0.06-0.088,0.099-0.189,0.178-0.267c0.368-0.368,0.854-0.538,1.337-0.525c0.482-0.013,0.968,0.157,1.337,0.525
	c0.078,0.079,0.116,0.18,0.178,0.267l7.301,7.301c0.712,0.712,0.712,1.87,0,2.582c-0.714,0.712-1.87,0.712-2.582,0l-6.233-6.233
	l-3.027,3.027l0.625,0.624c0.712,0.712,0.712,1.87,0,2.582c-0.712,0.712-1.87,0.712-2.582,0l-9.972-9.972L41.941,64.467z
	 M63.13,74.348h16.826c1.034,0,1.87,0.838,1.87,1.87c0,1.034-0.836,1.87-1.87,1.87H63.13c-1.034,0-1.87-0.836-1.87-1.87
	C61.261,75.185,62.097,74.348,63.13,74.348z M63.13,83.696h16.826c1.034,0,1.87,0.838,1.87,1.869c0,1.034-0.836,1.87-1.87,1.87
	H63.13c-1.034,0-1.87-0.836-1.87-1.87C61.261,84.533,62.097,83.696,63.13,83.696z M63.13,93.044h16.826
	c1.034,0,1.87,0.838,1.87,1.869c0,1.034-0.836,1.87-1.87,1.87H63.13c-1.034,0-1.87-0.836-1.87-1.87
	C61.261,93.881,62.097,93.044,63.13,93.044z M65,49.109c0,1.55-1.256,2.804-2.804,2.804s-2.804-1.254-2.804-2.804
	s1.256-2.804,2.804-2.804S65,47.559,65,49.109z M70.609,38.826H44.435c-1.034,0-1.87-0.838-1.87-1.87s0.836-1.869,1.87-1.869h26.174
	c1.034,0,1.87,0.837,1.87,1.869S71.643,38.826,70.609,38.826z M35.087,83.696h16.826c1.034,0,1.87,0.838,1.87,1.869
	c0,1.034-0.836,1.87-1.87,1.87H35.087c-1.034,0-1.87-0.836-1.87-1.87C33.217,84.533,34.053,83.696,35.087,83.696z M53.783,76.217
	c0,1.034-0.836,1.87-1.87,1.87H35.087c-1.034,0-1.87-0.836-1.87-1.87c0-1.032,0.836-1.87,1.87-1.87h16.826
	C52.947,74.348,53.783,75.185,53.783,76.217z"/>
</svg>
