<?xml version="1.0" encoding="iso-8859-1"?>
<!-- Generator: Adobe Illustrator 17.0.0, SVG Export Plug-In . SVG Version: 6.00 Build 0)  -->
<!DOCTYPE svg PUBLIC "-//W3C//DTD SVG 1.1//EN" "http://www.w3.org/Graphics/SVG/1.1/DTD/svg11.dtd">
<svg version="1.1" id="Layer_1" xmlns="http://www.w3.org/2000/svg" xmlns:xlink="http://www.w3.org/1999/xlink" x="0px" y="0px"
	 width="130px" height="130px" viewBox="0 0 130 130" style="enable-background:new 0 0 130 130;" xml:space="preserve">
<g>
	<g>
		<path style="fill:#F7E95A;" d="M104.129,32.711c0.001-3.303-2.049-5.391-5.352-5.403c-2.421-0.008-4.841,0.006-7.262,0.006
			c-10.949,0-21.898-0.001-32.847-0.002c-9.232-0.001-18.464-0.019-27.696,0.003c-3.469,0.008-5.454,1.989-5.471,5.449
			c-0.03,5.854-0.006,11.709-0.005,17.563c0.001,9.823,0.004,19.646,0.004,29.469c0,6.952-0.018,13.904-0.003,20.856
			c0.007,3.249,2.122,5.295,5.376,5.289c3.997-0.006,7.994-0.002,11.99-0.001c14.777,0.002,29.553,0.004,44.329,0.002
			c0.194,0,0.388-0.051,0.62-0.084c-0.605-0.661-1.103-1.277-1.681-1.805c-0.294-0.269-0.733-0.537-1.108-0.538
			c-10.892-0.029-21.785-0.024-32.677-0.024c-7.149,0-14.298-0.001-21.447,0.002c-0.911,0-1.844-0.153-2.305-0.965
			c-0.38-0.669-0.613-1.519-0.617-2.291c-0.041-8.838-0.025-17.675-0.025-26.513c0-9.26,0.005-18.52-0.012-27.78
			c-0.001-0.627,0.187-0.893,0.817-0.891C35.85,45.074,42.943,45,50.036,45c9.288,0,18.576,0,27.864,0
			c7.599,0,15.199,0.081,22.798,0.057c0.758-0.002,1.008,0.235,0.998,1.025c-0.042,3.518-0.022,7.054-0.011,10.573
			c0.001,0.294,0.006,0.693,0.18,0.874c0.673,0.697,1.416,1.331,2.206,2.052c0.026-0.304,0.063-0.541,0.063-0.78
			C104.135,50.103,104.127,41.408,104.129,32.711z"/>
		<path style="fill:#F7E95A;" d="M86.096,73.592c-0.262-0.236-0.642-0.477-0.971-0.48c-3.49-0.034-6.98-0.036-10.47,0.001
			c-0.351,0.004-0.751,0.267-1.037,0.514c-0.658,0.569-1.216,1.258-1.898,1.79c-0.482,0.376-0.632,0.763-0.628,1.348
			c0.023,3.546-0.006,7.093,0.026,10.64c0.006,0.708-0.217,0.906-0.911,0.9c-3.49-0.031-6.98-0.005-10.471-0.018
			c-1.457-0.006-1.377,0.264-1.382-1.422c-0.01-3.434-0.015-6.868,0.009-10.302c0.004-0.561-0.171-0.919-0.611-1.272
			c-0.611-0.489-1.183-1.048-1.676-1.654c-0.345-0.424-0.7-0.558-1.22-0.555c-3.575,0.017-7.15-0.016-10.724,0.028
			c-0.8,0.01-0.995-0.259-0.99-1.006c0.028-3.631,0.03-7.262-0.004-10.893c-0.007-0.727,0.249-0.892,0.925-0.886
			c3.406,0.029,6.812-0.005,10.217,0.028c0.682,0.007,1.108-0.177,1.542-0.736c0.615-0.792,1.415-1.438,2.108-2.172
			c0.191-0.202,0.402-0.496,0.404-0.75c0.028-2.589,0.028-5.179,0.005-7.768c-0.007-0.774-0.507-1.258-1.185-1.271
			c-0.697-0.013-1.19,0.504-1.242,1.31c-0.014,0.225-0.015,0.45-0.015,0.675c-0.001,2.449-0.025,4.898,0.016,7.346
			c0.011,0.694-0.164,0.917-0.887,0.91c-3.659-0.035-7.318-0.03-10.977,0.004c-0.701,0.007-0.92-0.195-0.909-0.899
			c0.039-2.533,0.018-5.066,0.024-7.6c0.003-1.142-0.421-1.746-1.243-1.748c-0.797-0.002-1.209,0.558-1.214,1.671
			c-0.007,1.998,0,3.997-0.015,5.995c-0.006,0.809,0.253,1.964-0.165,2.337c-0.484,0.432-1.581,0.207-2.413,0.216
			c-2.139,0.023-4.278,0.01-6.418,0.028c-0.735,0.006-1.148,0.428-1.219,1.141c-0.066,0.664,0.448,1.207,1.173,1.288
			c0.222,0.025,0.45,0.011,0.675,0.011c2.505-0.001,5.01,0.014,7.515-0.016c0.639-0.008,0.896,0.318,0.878,1.015
			C40.671,63.17,40.702,65,40.702,67h-0.003c0,2-0.019,3.602,0.011,5.487c0.009,0.581-0.156,0.717-0.762,0.695
			c-1.181-0.042-2.364-0.061-3.546-0.059c-1.576,0.004-3.153-0.023-4.728,0.005c-0.733,0.013-1.135,0.449-1.197,1.158
			c-0.059,0.674,0.45,1.176,1.201,1.244c0.224,0.02,0.45,0.01,0.675,0.01c2.477,0.002,4.954,0.026,7.431-0.012
			c0.751-0.012,0.945,0.241,0.938,0.971c-0.036,3.574-0.043,7.149,0.003,10.724c0.011,0.843-0.198,1.11-1.072,1.09
			c-2.616-0.059-5.235-0.03-7.853-0.013c-0.822,0.005-1.335,0.505-1.332,1.208c0.003,0.697,0.526,1.186,1.327,1.238
			c0.112,0.007,0.225,0.003,0.338,0.003c2.505-0.004,5.011,0.03,7.514-0.03c0.861-0.021,1.09,0.222,1.071,1.084
			c-0.058,2.616-0.027,5.235-0.003,7.852c0.008,0.805,0.542,1.333,1.228,1.325c0.681-0.008,1.175-0.556,1.217-1.352
			c0.006-0.112-0.001-0.225-0.001-0.338c-0.002-2.533,0.02-5.067-0.021-7.6c-0.012-0.718,0.159-0.978,0.931-0.97
			c3.574,0.041,7.149,0.015,10.724,0.02c1.111,0.002,1.113,0.012,1.113,1.103c0.001,2.533-0.005,5.067,0.004,7.6
			c0.004,0.969,0.441,1.51,1.191,1.529c0.767,0.02,1.232-0.56,1.252-1.561c0.002-0.113,0.001-0.225,0.001-0.338
			c0.003-2.477,0.027-4.954-0.005-7.431c-0.009-0.697,0.209-0.915,0.908-0.91c3.603,0.027,7.206,0.039,10.808-0.017
			c0.891-0.014,1.07,0.268,1.054,1.101c-0.052,2.588-0.025,5.179-0.003,7.768c0.007,0.866,0.533,1.412,1.245,1.395
			c0.708-0.017,1.181-0.586,1.204-1.451c0.003-0.113-0.006-0.225-0.006-0.338c-0.001-2.505,0.025-5.011-0.019-7.515
			c-0.013-0.74,0.196-0.962,0.947-0.954c3.462,0.038,6.924,0.006,10.386,0.028c0.535,0.003,0.844-0.187,1.192-0.591
			c0.675-0.784,1.481-1.453,2.187-2.212c0.238-0.256,0.481-0.637,0.484-0.963c0.035-3.434,0.035-6.868,0-10.302
			c-0.003-0.328-0.242-0.711-0.48-0.968C87.568,74.977,86.845,74.268,86.096,73.592z M55.904,82H55.9c0,2-0.025,3.674,0.014,5.529
			c0.013,0.639-0.196,0.792-0.819,0.788c-3.711-0.024-7.423-0.032-11.135-0.005c-0.628,0.004-0.822-0.196-0.818-0.821
			c0.027-3.683,0.033-7.369,0.006-11.053c-0.005-0.705,0.225-0.908,0.914-0.903c3.683,0.025,7.367,0.02,11.05-0.008
			c0.642-0.005,0.816,0.25,0.805,0.868C55.882,78.25,55.904,80,55.904,82z M86.313,87.562c0.007,0.539-0.149,0.74-0.714,0.737
			c-3.768-0.019-7.536-0.017-11.303,0c-0.53,0.002-0.752-0.142-0.749-0.711c0.022-3.768,0.029-7.536,0.009-11.304
			c-0.003-0.624,0.256-0.746,0.805-0.744c3.74,0.013,7.48,0.013,11.219-0.014c0.631-0.005,0.742,0.269,0.735,0.816
			C86.292,78.227,86.307,80,86.307,82h-0.003C86.303,84,86.288,85.707,86.313,87.562z"/>
		<path style="fill:#F7E95A;" d="M88.181,47.876c-0.799-0.626-1.85,0.036-1.862,1.166c-0.027,2.673-0.031,5.346-0.005,8.019
			c0.006,0.606-0.128,0.852-0.79,0.837c-1.856-0.041-3.714-0.014-5.571-0.015c-1.801,0-3.602-0.035-5.402,0.016
			c-0.752,0.021-1.031-0.156-1.014-0.966c0.054-2.559,0.028-5.12,0.028-7.681c0-1.006-0.447-1.583-1.222-1.6
			c-0.774-0.017-1.23,0.547-1.233,1.565c-0.007,2.363-0.026,4.728,0.022,7.09c0.008,0.377,0.269,0.811,0.535,1.108
			c0.729,0.813,1.558,1.537,2.275,2.36c0.323,0.371,0.604,0.576,1.112,0.572c3.32-0.021,6.64,0,9.96-0.03
			c0.307-0.003,0.671-0.208,0.908-0.428c0.82-0.763,1.608-1.561,2.377-2.375c0.208-0.22,0.433-0.542,0.436-0.82
			c0.032-2.56,0.041-5.121-0.007-7.681C88.721,48.624,88.483,48.113,88.181,47.876z"/>
		<path style="fill:#F7E95A;" d="M101.69,76.385c-0.016,3.628-0.018,7.256,0.003,10.884c0.002,0.272,0.603,0.611,0.79,0.802
			c0.626,0.641,1.517,1.229,2.517,1.91c0-5.469,0-10.858,0-16.298c-1,0.694-1.926,1.303-2.575,1.959
			C102.257,75.814,101.692,76.133,101.69,76.385z"/>
	</g>
	<path style="fill:#B64B24;" d="M56.073,66.41c0.083-4.956,3.953-8.747,8.873-8.692c4.801,0.054,8.692,4.029,8.603,8.789
		c-0.094,5.036-4.015,8.805-9.038,8.689C59.818,75.089,55.995,71.108,56.073,66.41z"/>
	<path style="fill:#B64B24;" d="M86.306,66.593c0.073-4.956,3.934-8.751,8.859-8.706c4.799,0.043,8.701,4.017,8.618,8.775
		c-0.087,5.007-3.936,8.755-8.94,8.705C90.122,75.319,86.237,71.327,86.306,66.593z"/>
	<path style="fill:#B64B24;" d="M94.988,88.29c4.729-0.086,8.736,3.791,8.797,8.513c0.065,5.005-3.673,8.865-8.68,8.963
		c-4.761,0.094-8.738-3.79-8.799-8.593C86.243,92.256,90.032,88.38,94.988,88.29z"/>
</g>
</svg>
