<?xml version="1.0" encoding="iso-8859-1"?>
<!-- Generator: Adobe Illustrator 17.0.0, SVG Export Plug-In . SVG Version: 6.00 Build 0)  -->
<!DOCTYPE svg PUBLIC "-//W3C//DTD SVG 1.1//EN" "http://www.w3.org/Graphics/SVG/1.1/DTD/svg11.dtd">
<svg version="1.1" id="Layer_1" xmlns="http://www.w3.org/2000/svg" xmlns:xlink="http://www.w3.org/1999/xlink" x="0px" y="0px"
	 width="130px" height="130px" viewBox="0 0 130 130" style="enable-background:new 0 0 130 130;" xml:space="preserve">
<g>
	<defs>
		<rect id="SVGID_3_" x="-1758" y="-262" width="1280" height="2075"/>
	</defs>
	<clipPath id="SVGID_4_">
		<use xlink:href="#SVGID_3_"  style="overflow:visible;"/>
	</clipPath>
	<g style="clip-path:url(#SVGID_4_);">
		
			<image style="overflow:visible;" width="4884" height="3256" xlink:href="D:\Work\Stratadigm\IKMsqwyaR6qN0kq48STw_annapurna.jpg"  transform="matrix(0.6511 0 0 0.6511 -2707.6589 -262.0007)">
		</image>
	</g>
</g>
<g>
	<path style="fill:#27AAE1;" d="M36.241,23.152c9.093,0,18.054,0.323,26.977-0.123c5.194-0.26,8.832,1.248,12.292,5.118
		c5.421,6.063,11.448,11.582,17.159,17.389c0.571,0.58,1.04,1.559,1.043,2.354c0.059,17.957,0.047,35.914,0.045,53.872
		c0,0.364-0.034,0.729-0.059,1.239c-19.137,0-38.228,0-57.457,0C36.241,76.491,36.241,49.936,36.241,23.152z M39.494,26.539
		c0,24.518,0,48.859,0,73.195c17.042,0,33.965,0,50.857,0c0-17.072,0-34.002,0-51.116c-7.443,0-14.753,0-22.203,0
		c0-7.445,0-14.705,0-22.079C58.535,26.539,49.067,26.539,39.494,26.539z M71.392,29.175c0,5.373,0,10.766,0,16.25
		c5.53,0,10.954,0,16.317,0C82.25,39.988,76.831,34.591,71.392,29.175z"/>
	<path style="fill:#27AAE1;" d="M61.86,74.287c-2.977,0.17-5.741,0.363-8.507,0.468c-1.003,0.038-1.369,0.487-1.538,1.417
		c-0.307,1.694-0.734,3.366-1.103,5.049c-0.217,0.99-0.666,1.971-1.798,1.482c-0.503-0.217-1.006-1.45-0.844-2.038
		c2.139-7.767,4.346-15.516,6.686-23.224c0.31-1.021,1.444-1.793,2.197-2.68c0.675,0.877,1.654,1.654,1.977,2.646
		c2.402,7.362,4.685,14.763,6.973,22.162c0.297,0.96,0.484,2.119-0.849,2.429c-1.355,0.315-1.575-0.837-1.807-1.817
		C62.793,78.27,62.347,76.359,61.86,74.287z M61.178,71.577c-1.402-4.081-2.716-7.903-4.03-11.726
		c-0.181,0.007-0.362,0.014-0.543,0.022c-1.227,3.985-2.453,7.969-3.762,12.221C55.738,71.914,58.237,71.759,61.178,71.577z"/>
	<path style="fill:#27AAE1;" d="M77.953,70.929c1.491,0,2.848-0.131,4.159,0.057c0.617,0.089,1.147,0.79,1.716,1.213
		c-0.522,0.468-0.982,1.209-1.58,1.348c-1.293,0.3-2.658,0.291-3.985,0.408c0,1.444,0.118,2.795-0.054,4.107
		c-0.076,0.578-0.741,1.079-1.138,1.614c-0.488-0.511-1.259-0.952-1.406-1.547c-0.303-1.234-0.275-2.55-0.387-3.875
		c-1.306,0-2.574-0.015-3.84,0.005c-0.992,0.016-2.073-0.111-1.958-1.313c0.05-0.522,1.044-1.206,1.714-1.361
		c1.237-0.287,2.551-0.238,3.983-0.339c-0.082-1.578-0.287-3.099-0.179-4.597c0.044-0.607,0.769-1.165,1.184-1.745
		c0.485,0.507,1.278,0.952,1.395,1.533C77.865,67.871,77.844,69.366,77.953,70.929z"/>
</g>
</svg>
