<?xml version="1.0" encoding="iso-8859-1"?>
<!-- Generator: Adobe Illustrator 17.0.0, SVG Export Plug-In . SVG Version: 6.00 Build 0)  -->
<!DOCTYPE svg PUBLIC "-//W3C//DTD SVG 1.1//EN" "http://www.w3.org/Graphics/SVG/1.1/DTD/svg11.dtd">
<svg version="1.1" id="Layer_1" xmlns="http://www.w3.org/2000/svg" xmlns:xlink="http://www.w3.org/1999/xlink" x="0px" y="0px"
	 width="130px" height="130px" viewBox="0 0 130 130" style="enable-background:new 0 0 130 130;" xml:space="preserve">
<g>
	<defs>
		<rect id="SVGID_3_" x="-2141" y="-262" width="1280" height="2075"/>
	</defs>
	<clipPath id="SVGID_4_">
		<use xlink:href="#SVGID_3_"  style="overflow:visible;"/>
	</clipPath>
	<g transform="matrix(1 0 0 1 2.441406e-004 0)" style="clip-path:url(#SVGID_4_);">
		
			<image style="overflow:visible;" width="4884" height="3256" xlink:href="D:\Work\Stratadigm\IKMsqwyaR6qN0kq48STw_annapurna.jpg"  transform="matrix(0.6511 0 0 0.6511 -3090.6589 -262.0007)">
		</image>
	</g>
</g>
<g>
	<polygon style="fill:#82BF4D;" points="71.141,50 56.141,50 42.366,93 56.507,93 	"/>
	<linearGradient id="SVGID_6_" gradientUnits="userSpaceOnUse" x1="42.3664" y1="71.5" x2="71.1407" y2="71.5">
		<stop  offset="0" style="stop-color:#FFFFFF"/>
		<stop  offset="1" style="stop-color:#000000"/>
	</linearGradient>
	<polygon style="fill:url(#SVGID_6_);" points="71.141,50 56.141,50 42.366,93 56.507,93 	"/>
	<polygon style="fill:#82BF4D;" points="56.366,50 71.366,50 85.141,93 71,93 	"/>
	<linearGradient id="SVGID_8_" gradientUnits="userSpaceOnUse" x1="56.3664" y1="71.5" x2="85.1407" y2="71.5">
		<stop  offset="0" style="stop-color:#FFFFFF"/>
		<stop  offset="1" style="stop-color:#000000"/>
	</linearGradient>
	<polygon style="fill:url(#SVGID_8_);" points="56.366,50 71.366,50 85.141,93 71,93 	"/>
	<polygon style="fill:#82BF4D;" points="26.908,35 41.908,35 56.141,93 42,93 	"/>
	<polygon style="fill:#82BF4D;" points="102.141,35 87.141,35 72.908,93 87.049,93 	"/>
</g>
</svg>
