<?xml version="1.0" encoding="iso-8859-1"?>
<!-- Generator: Adobe Illustrator 17.0.0, SVG Export Plug-In . SVG Version: 6.00 Build 0)  -->
<!DOCTYPE svg PUBLIC "-//W3C//DTD SVG 1.1//EN" "http://www.w3.org/Graphics/SVG/1.1/DTD/svg11.dtd">
<svg version="1.1" id="Layer_1" xmlns="http://www.w3.org/2000/svg" xmlns:xlink="http://www.w3.org/1999/xlink" x="0px" y="0px"
	 width="130px" height="130px" viewBox="0 0 130 130" style="enable-background:new 0 0 130 130;" xml:space="preserve">
<g>
	<defs>
		<rect id="SVGID_3_" x="-1758" y="-1248" width="1280" height="2075"/>
	</defs>
	<clipPath id="SVGID_4_">
		<use xlink:href="#SVGID_3_"  style="overflow:visible;"/>
	</clipPath>
	<g style="clip-path:url(#SVGID_4_);">
		
			<image style="overflow:visible;" width="4884" height="3256" xlink:href="D:\Work\Stratadigm\IKMsqwyaR6qN0kq48STw_annapurna.jpg"  transform="matrix(0.6511 0 0 0.6511 -2707.6589 -1248.0007)">
		</image>
	</g>
</g>
<g>
	<g>
		<path style="fill:#009245;" d="M75.254,87.485c-1.429-2.724-2.767-5.273-4.17-7.948c-3.053,0.987-6.2,1.661-9.246,0.658
			c-2.921-0.962-5.665-2.464-8.942-3.932c-2.676,2.111-5.928,4.63-9.096,7.248c-0.32,0.264-0.338,1.198-0.164,1.707
			c2.039,5.983-1.385,11.79-7.65,12.883c-5.147,0.898-10.226-3.029-10.887-8.419c-0.645-5.254,3.571-10.321,8.777-10.62
			c2.719-0.156,5.09,0.686,7.249,2.412c3.5-2.771,6.915-5.474,10.368-8.207c-3.583-6.542-3.215-12.75,0.985-18.636
			c-4.153-4.137-8.249-8.218-12.45-12.402c-2.425,1.432-5.273,2.334-8.084,1.114c-1.946-0.844-3.926-2.204-5.209-3.862
			c-2.815-3.638-2.082-8.896,1.246-12.139c3.299-3.216,8.5-3.606,12.232-0.918c4.193,3.02,5.042,7.678,2.458,13.28
			c4.119,4.096,8.222,8.178,12.417,12.349c4.048-3.029,8.704-4.095,13.954-2.936c0.808-2.178,1.593-4.292,2.408-6.489
			c-2.52-1.76-4.238-3.975-4.685-7.05c-0.781-5.373,3.131-10.374,8.595-10.918c5.216-0.52,10.117,3.613,10.425,8.791
			c0.332,5.583-3.796,10.354-9.231,10.302c-1.812-0.018-2.494,0.61-2.939,2.136c-0.411,1.41-0.976,2.776-1.515,4.277
			c6.151,3.545,9.28,8.807,8.903,16.168c1.793,0.379,3.567,0.755,5.312,1.124c2.737-5.186,7.814-7.505,13.269-5.064
			c4.167,1.865,6.284,6.637,5.095,11.136c-1.18,4.465-5.289,7.343-10.033,7.029c-4.891-0.325-8.274-4.01-8.912-9.904
			c-1.704-0.372-3.478-0.759-4.798-1.047c-2.293,3.035-4.414,5.842-6.752,8.936c0.973,1.847,2.142,4.213,3.483,6.477
			c0.241,0.406,1.226,0.624,1.807,0.536c4.813-0.733,9.384,2.091,10.755,6.737c1.36,4.609-0.957,9.617-5.331,11.522
			c-4.121,1.795-8.935,0.498-11.571-3.117c-2.745-3.764-2.457-8.752,0.726-12.237C74.378,88.102,74.81,87.84,75.254,87.485z"/>
	</g>
	<path style="fill:none;" d="M65.13,51.854c-7.079-0.046-12.829,5.643-12.866,12.73c-0.037,7.054,5.717,12.824,12.785,12.823
		c6.994-0.002,12.707-5.656,12.781-12.652C77.905,57.692,72.203,51.9,65.13,51.854z"/>
	<path style="fill:#FFFFB8;" d="M76.354,27.91c-3.554-0.052-6.408,2.659-6.488,6.164c-0.081,3.494,2.699,6.426,6.17,6.508
		c3.633,0.086,6.512-2.667,6.568-6.281C82.658,30.789,79.892,27.962,76.354,27.91z"/>
	<path style="fill:#FFFFB8;" d="M28.327,34.162c-0.024,3.583,2.664,6.368,6.202,6.426c3.597,0.059,6.471-2.768,6.476-6.37
		c0.004-3.541-2.752-6.294-6.323-6.315C31.112,27.881,28.352,30.601,28.327,34.162z"/>
	<path style="fill:#FFFFB8;" d="M28.324,88.611c-0.012,3.549,2.746,6.357,6.269,6.38c3.511,0.023,6.384-2.784,6.413-6.265
		c0.03-3.617-2.806-6.492-6.393-6.481C31.109,82.255,28.337,85.062,28.324,88.611z"/>
	<path style="fill:#FFFFB8;" d="M80.975,101.345c3.641,0.017,6.467-2.795,6.432-6.4c-0.033-3.416-2.814-6.231-6.213-6.288
		c-3.602-0.06-6.492,2.752-6.519,6.343C74.65,98.504,77.453,101.328,80.975,101.345z"/>
	<path style="fill:#FFFFB8;" d="M101.764,71.211c0.077-3.561-2.595-6.441-6.093-6.568c-3.479-0.126-6.476,2.653-6.582,6.103
		c-0.111,3.623,2.636,6.569,6.209,6.658C98.799,77.492,101.688,74.725,101.764,71.211z"/>
</g>
</svg>
