<?xml version="1.0" encoding="iso-8859-1"?>
<!-- Generator: Adobe Illustrator 17.0.0, SVG Export Plug-In . SVG Version: 6.00 Build 0)  -->
<!DOCTYPE svg PUBLIC "-//W3C//DTD SVG 1.1//EN" "http://www.w3.org/Graphics/SVG/1.1/DTD/svg11.dtd">
<svg version="1.1" id="Layer_1" xmlns="http://www.w3.org/2000/svg" xmlns:xlink="http://www.w3.org/1999/xlink" x="0px" y="0px"
	 width="130px" height="130px" viewBox="0 0 130 130" style="enable-background:new 0 0 130 130;" xml:space="preserve">
<g>
	<g>
		<path style="fill:#7AC943;" d="M64.895,111.356c-12.872,0-25.744,0.001-38.616-0.001c-3.591-0.001-4.731-1.119-4.732-4.638
			c-0.002-23.531-0.002-47.063,0-70.594c0-3.655,1.105-4.759,4.843-4.76c25.811-0.008,51.622-0.008,77.433-0.001
			c3.438,0.001,4.627,1.188,4.627,4.571c0.004,23.598,0.005,47.197,0.001,70.796c-0.001,3.523-1.144,4.627-4.74,4.628
			C90.773,111.357,77.834,111.356,64.895,111.356z M45.955,50.376c5.776,0,11.464,0,17.261,0c0-5.159,0-10.204,0-15.316
			c-5.801,0-11.499,0-17.261,0C45.955,40.149,45.955,45.089,45.955,50.376z M63.223,73.288c-5.903,0-11.565,0-17.145,0
			c0,5.21,0,10.263,0,15.29c5.84,0,11.491,0,17.145,0C63.223,83.388,63.223,78.38,63.223,73.288z M66.758,50.529
			c5.577,0,10.927,0.03,16.275-0.065c0.366-0.007,0.998-0.935,1.023-1.457c0.113-2.34,0.052-4.689,0.053-7.034
			c0.001-2.31,0-4.619,0-6.913c-5.984,0-11.637,0-17.351,0C66.758,40.212,66.758,45.216,66.758,50.529z M42.306,73.254
			c-5.828,0-11.43,0-17.081,0c0,5.177,0,10.232,0,15.332c5.769,0,11.41,0,17.081,0C42.306,83.404,42.306,78.399,42.306,73.254z
			 M104.742,88.652c0-5.205,0-10.308,0-15.396c-5.758,0-11.359,0-17.017,0c0,5.178,0,10.233,0,15.396
			C93.448,88.652,99.044,88.652,104.742,88.652z M87.736,34.962c0,5.251,0,10.303,0,15.463c5.73,0,11.323,0,16.998,0
			c0-5.21,0-10.312,0-15.463C99.016,34.962,93.462,34.962,87.736,34.962z M42.234,69.514c0-5.24,0-10.28,0-15.358
			c-5.764,0-11.358,0-16.982,0c0,5.192,0,10.241,0,15.358C30.954,69.514,36.504,69.514,42.234,69.514z M66.787,69.409
			c5.808,0,11.501,0,17.207,0c0-5.168,0-10.16,0-15.209c-5.81,0-11.504,0-17.207,0C66.787,59.371,66.787,64.36,66.787,69.409z
			 M66.785,107.631c5.806,0,11.5,0,17.212,0c0-5.166,0-10.158,0-15.21c-5.814,0-11.512,0-17.212,0
			C66.785,97.589,66.785,102.58,66.785,107.631z M63.23,107.72c0-5.225,0-10.212,0-15.307c-5.787,0-11.478,0-17.157,0
			c0,5.199,0,10.228,0,15.307C51.852,107.72,57.45,107.72,63.23,107.72z M87.72,69.465c5.771,0,11.371,0,17.04,0
			c0-5.164,0-10.209,0-15.309c-5.733,0-11.327,0-17.04,0C87.72,59.286,87.72,64.28,87.72,69.465z M25.19,107.665
			c5.828,0,11.423,0,17.102,0c0-5.135,0-10.129,0-15.263c-5.744,0-11.38,0-17.102,0C25.19,97.557,25.19,102.555,25.19,107.665z
			 M73.742,88.66c0.26-1.153,0.314-2.169,0.763-2.962c0.157-0.278,1.717-0.246,1.881,0.055c0.438,0.807,0.468,1.836,0.687,2.91
			c1.994,0,4.371,0,6.89,0c0-5.207,0-10.305,0-15.393c-5.811,0-11.465,0-17.151,0c0,5.187,0,10.236,0,15.391
			C69.341,88.66,71.733,88.66,73.742,88.66z M32,50.46c0.262-1.103,0.36-2.161,0.815-3.033c0.132-0.254,1.724-0.206,1.878,0.097
			c0.416,0.813,0.417,1.838,0.597,2.863c2.076,0,4.503,0,6.986,0c0-5.208,0-10.261,0-15.321c-5.786,0-11.435,0-17.011,0
			c0,5.211,0,10.264,0,15.395C27.762,50.46,30.093,50.46,32,50.46z M52.89,69.474c0.255-1.075,0.335-2.075,0.77-2.884
			c0.15-0.28,1.606-0.311,1.737-0.065c0.458,0.854,0.597,1.879,0.867,2.876c2.091,0,4.518,0,6.939,0c0-5.171,0-10.157,0-15.264
			c-5.766,0-11.413,0-17.181,0c0,5.155,0,10.191,0,15.337C48.536,69.474,50.916,69.474,52.89,69.474z M104.808,92.253
			c-5.446,0-10.663,0.023-15.879-0.017c-1.282-0.01-1.353,0.703-1.344,1.674c0.029,3.146,0.013,6.293,0.013,9.439
			c0,1.443,0,2.887,0,4.388c2.641,0,4.969,0,6.987,0c0.247-1.075,0.303-2.104,0.762-2.902c0.168-0.291,1.719-0.282,1.895,0.022
			c0.456,0.788,0.499,1.815,0.716,2.79c2.085,0,4.455,0,6.849,0C104.808,102.494,104.808,97.494,104.808,92.253z"/>
		<path style="fill:#7AC943;" d="M75.476,74.198c0.76,1.111,1.587,1.788,1.529,2.379c-0.06,0.618-0.971,1.152-1.51,1.723
			c-0.568-0.6-1.467-1.138-1.596-1.821C73.802,75.965,74.694,75.266,75.476,74.198z"/>
		<path style="fill:#7AC943;" d="M72.592,81.671c-1.047,0.86-1.652,1.744-2.232,1.729c-0.605-0.016-1.719-0.976-1.66-1.388
			c0.099-0.696,0.848-1.609,1.512-1.811C70.684,80.058,71.466,80.934,72.592,81.671z"/>
		<path style="fill:#7AC943;" d="M80.694,79.411c0.756,1.111,1.644,1.861,1.523,2.377c-0.158,0.677-1.11,1.169-1.721,1.741
			c-0.507-0.608-1.378-1.194-1.415-1.829C79.047,81.11,79.902,80.468,80.694,79.411z"/>
		<path style="fill:#7AC943;" d="M28.41,41.18c0.804,1.047,1.664,1.676,1.642,2.273c-0.023,0.622-0.897,1.211-1.399,1.815
			c-0.62-0.564-1.573-1.042-1.748-1.72C26.775,43.048,27.664,42.286,28.41,41.18z"/>
		<path style="fill:#7AC943;" d="M38.953,41.18c0.761,1.087,1.659,1.825,1.546,2.342c-0.149,0.677-1.096,1.179-1.699,1.757
			c-0.517-0.595-1.404-1.168-1.443-1.793C37.32,42.892,38.171,42.243,38.953,41.18z"/>
		<path style="fill:#7AC943;" d="M36.072,38.363c-1.076,0.783-1.813,1.702-2.306,1.585c-0.677-0.16-1.17-1.103-1.741-1.711
			c0.579-0.538,1.13-1.458,1.746-1.504C34.355,36.69,35.007,37.562,36.072,38.363z"/>
		<path style="fill:#7AC943;" d="M54.521,59.876c-0.772-1.149-1.631-1.887-1.507-2.375c0.168-0.663,1.089-1.134,1.687-1.688
			c0.502,0.58,1.357,1.134,1.404,1.749C56.148,58.131,55.327,58.766,54.521,59.876z"/>
		<path style="fill:#7AC943;" d="M51.756,62.827c-1.173,0.719-1.873,1.491-2.44,1.403c-0.611-0.095-1.096-0.995-1.636-1.543
			c0.603-0.555,1.148-1.436,1.828-1.556C50.001,61.043,50.672,61.964,51.756,62.827z"/>
		<path style="fill:#7AC943;" d="M59.825,65.085c-0.807-1.107-1.694-1.813-1.588-2.302c0.145-0.668,1.047-1.173,1.624-1.747
			c0.522,0.56,1.399,1.082,1.464,1.69C61.387,63.296,60.588,63.958,59.825,65.085z"/>
		<path style="fill:#7AC943;" d="M101.488,98.512c0.806,1.109,1.711,1.833,1.601,2.332c-0.148,0.668-1.083,1.162-1.68,1.73
			c-0.529-0.567-1.426-1.102-1.48-1.711C99.876,100.282,100.704,99.623,101.488,98.512z"/>
		<path style="fill:#7AC943;" d="M98.711,95.853c-1.17,0.713-1.946,1.546-2.453,1.406c-0.659-0.182-1.105-1.138-1.642-1.76
			c0.609-0.486,1.211-1.342,1.827-1.351C97.037,94.139,97.646,95.003,98.711,95.853z"/>
		<path style="fill:#7AC943;" d="M90.955,98.5c0.855,1.088,1.779,1.772,1.687,2.267c-0.127,0.678-1.025,1.212-1.593,1.808
			c-0.543-0.543-1.445-1.038-1.525-1.643C89.448,100.354,90.226,99.663,90.955,98.5z"/>
	</g>
	<rect x="25" y="35" style="fill:#006837;" width="18" height="16"/>
	<rect x="46" y="54" style="fill:#006837;" width="18" height="16"/>
	<rect x="66" y="73" style="fill:#006837;" width="18" height="16"/>
	<rect x="87" y="54" style="fill:#006837;" width="18" height="16"/>
	<rect x="66" y="92" style="fill:#006837;" width="18" height="16"/>
	<rect x="87" y="92" style="fill:#006837;" width="18" height="16"/>
</g>
</svg>
