<?xml version="1.0" encoding="iso-8859-1"?>
<!-- Generator: Adobe Illustrator 17.0.0, SVG Export Plug-In . SVG Version: 6.00 Build 0)  -->
<!DOCTYPE svg PUBLIC "-//W3C//DTD SVG 1.1//EN" "http://www.w3.org/Graphics/SVG/1.1/DTD/svg11.dtd">
<svg version="1.1" id="Layer_1" xmlns="http://www.w3.org/2000/svg" xmlns:xlink="http://www.w3.org/1999/xlink" x="0px" y="0px"
	 width="130px" height="130px" viewBox="0 0 130 130" style="enable-background:new 0 0 130 130;" xml:space="preserve">
<g>
	<defs>
		<rect id="SVGID_3_" x="-2141" y="-1248" width="1280" height="2075"/>
	</defs>
	<clipPath id="SVGID_4_">
		<use xlink:href="#SVGID_3_"  style="overflow:visible;"/>
	</clipPath>
	<g transform="matrix(1 0 0 1 2.441406e-004 0)" style="clip-path:url(#SVGID_4_);">
		
			<image style="overflow:visible;" width="4884" height="3256" xlink:href="D:\Work\Stratadigm\IKMsqwyaR6qN0kq48STw_annapurna.jpg"  transform="matrix(0.6511 0 0 0.6511 -3090.6589 -1248.0007)">
		</image>
	</g>
</g>
<g>
	<g>
		<path style="fill:#FF6749;" d="M63.453,49.816c0.443-3.975,1.335-7.549,3.545-10.673c2.837-4.009,6.848-6.454,11.204-8.414
			c3.388-1.524,6.861-2.862,10.232-4.422c3.276-1.516,5.927-3.595,6.169-7.669c0.031-0.514,1.081-1.371,1.611-1.336
			c0.519,0.034,1.354,0.978,1.396,1.569c0.216,3.032-0.929,5.732-3.349,7.441c-2.648,1.869-5.581,3.394-8.533,4.761
			c-4.452,2.06-9.197,3.52-13.055,6.726c-3.641,3.025-5.486,6.921-5.81,12.122c1.784-0.564,3.315-0.983,4.795-1.538
			c0.997-0.374,1.917-0.949,2.88-1.418c7.097-3.459,12.313-2.766,17.541,3.101c8.727,9.795,13.434,21.35,13.819,34.535
			c0.09,3.072-0.684,6.011-2.43,8.605c-1.818,2.701-4.353,4.126-7.649,4.094c-5.295-0.051-9.993-1.912-14.252-4.905
			c-3.506-2.464-6.852-5.153-10.346-7.635c-4.129-2.933-8.336-2.826-12.479,0.039c-1.399,0.967-2.733,2.029-4.136,2.991
			c-3.527,2.418-6.923,5.091-10.673,7.099c-2.424,1.298-5.337,1.939-8.105,2.283c-5.994,0.746-10.091-2.706-11.317-9.106
			c-0.951-4.962-0.135-9.811,1.13-14.586c2.358-8.898,6.187-17.073,12.653-23.766c5.222-5.405,9.931-6.13,16.795-2.947
			c1.656,0.768,3.288,1.601,4.986,2.26C61.094,49.423,62.22,49.54,63.453,49.816z"/>
	</g>
	<linearGradient id="SVGID_6_" gradientUnits="userSpaceOnUse" x1="43.8048" y1="71.3351" x2="61.7357" y2="71.3351">
		<stop  offset="0" style="stop-color:#000000"/>
		<stop  offset="0.0598" style="stop-color:#232323"/>
		<stop  offset="0.1585" style="stop-color:#565656"/>
		<stop  offset="0.2619" style="stop-color:#838383"/>
		<stop  offset="0.3678" style="stop-color:#A9A9A9"/>
		<stop  offset="0.477" style="stop-color:#C8C8C8"/>
		<stop  offset="0.5906" style="stop-color:#E1E1E1"/>
		<stop  offset="0.7103" style="stop-color:#F2F2F2"/>
		<stop  offset="0.8404" style="stop-color:#FCFCFC"/>
		<stop  offset="1" style="stop-color:#FFFFFF"/>
	</linearGradient>
	<polyline style="opacity:0.5;fill:url(#SVGID_6_);" points="43.805,75.863 55.83,81.243 61.736,69.477 48.63,61.428 	"/>
	<path style="fill:#FFFFFF;" d="M43.805,71.184c-1.763,0-3.2,0-4.773,0c0-1.638,0-3.17,0-4.884c1.49,0,2.974,0,4.684,0
		c0-1.706,0-3.243,0-4.873c1.713,0,3.2,0,4.914,0c0,1.552,0,3.089,0,4.77c1.711,0,3.203,0,4.833,0c0,1.681,0,3.213,0,4.91
		c-1.511,0-2.997,0-4.681,0c0,1.631,0,3.109,0,4.755c-1.719,0-3.245,0-4.977,0C43.805,74.39,43.805,72.909,43.805,71.184z"/>
	<linearGradient id="SVGID_8_" gradientUnits="userSpaceOnUse" x1="77.0732" y1="71.3351" x2="85.7196" y2="71.3351">
		<stop  offset="0" style="stop-color:#000000"/>
		<stop  offset="0.0598" style="stop-color:#232323"/>
		<stop  offset="0.1585" style="stop-color:#565656"/>
		<stop  offset="0.2619" style="stop-color:#838383"/>
		<stop  offset="0.3678" style="stop-color:#A9A9A9"/>
		<stop  offset="0.477" style="stop-color:#C8C8C8"/>
		<stop  offset="0.5906" style="stop-color:#E1E1E1"/>
		<stop  offset="0.7103" style="stop-color:#F2F2F2"/>
		<stop  offset="0.8404" style="stop-color:#FCFCFC"/>
		<stop  offset="1" style="stop-color:#FFFFFF"/>
	</linearGradient>
	<polygon style="opacity:0.5;fill:url(#SVGID_8_);" points="77.073,72.587 82.759,75.529 85.72,70.19 80.275,67.141 	"/>
	<linearGradient id="SVGID_10_" gradientUnits="userSpaceOnUse" x1="83.1473" y1="64.4517" x2="91.7936" y2="64.4517">
		<stop  offset="0" style="stop-color:#000000"/>
		<stop  offset="0.0598" style="stop-color:#232323"/>
		<stop  offset="0.1585" style="stop-color:#565656"/>
		<stop  offset="0.2619" style="stop-color:#838383"/>
		<stop  offset="0.3678" style="stop-color:#A9A9A9"/>
		<stop  offset="0.477" style="stop-color:#C8C8C8"/>
		<stop  offset="0.5906" style="stop-color:#E1E1E1"/>
		<stop  offset="0.7103" style="stop-color:#F2F2F2"/>
		<stop  offset="0.8404" style="stop-color:#FCFCFC"/>
		<stop  offset="1" style="stop-color:#FFFFFF"/>
	</linearGradient>
	<polygon style="opacity:0.5;fill:url(#SVGID_10_);" points="83.147,65.703 88.833,68.645 91.794,63.307 86.349,60.258 	"/>
	<linearGradient id="SVGID_12_" gradientUnits="userSpaceOnUse" x1="89.7275" y1="70.9475" x2="98.3739" y2="70.9475">
		<stop  offset="0" style="stop-color:#000000"/>
		<stop  offset="0.0598" style="stop-color:#232323"/>
		<stop  offset="0.1585" style="stop-color:#565656"/>
		<stop  offset="0.2619" style="stop-color:#838383"/>
		<stop  offset="0.3678" style="stop-color:#A9A9A9"/>
		<stop  offset="0.477" style="stop-color:#C8C8C8"/>
		<stop  offset="0.5906" style="stop-color:#E1E1E1"/>
		<stop  offset="0.7103" style="stop-color:#F2F2F2"/>
		<stop  offset="0.8404" style="stop-color:#FCFCFC"/>
		<stop  offset="1" style="stop-color:#FFFFFF"/>
	</linearGradient>
	<polygon style="opacity:0.5;fill:url(#SVGID_12_);" points="89.728,72.199 95.413,75.141 98.374,69.803 92.929,66.754 	"/>
	<linearGradient id="SVGID_13_" gradientUnits="userSpaceOnUse" x1="83.1473" y1="77.5278" x2="91.7936" y2="77.5278">
		<stop  offset="0" style="stop-color:#000000"/>
		<stop  offset="0.0598" style="stop-color:#232323"/>
		<stop  offset="0.1585" style="stop-color:#565656"/>
		<stop  offset="0.2619" style="stop-color:#838383"/>
		<stop  offset="0.3678" style="stop-color:#A9A9A9"/>
		<stop  offset="0.477" style="stop-color:#C8C8C8"/>
		<stop  offset="0.5906" style="stop-color:#E1E1E1"/>
		<stop  offset="0.7103" style="stop-color:#F2F2F2"/>
		<stop  offset="0.8404" style="stop-color:#FCFCFC"/>
		<stop  offset="1" style="stop-color:#FFFFFF"/>
	</linearGradient>
	<polygon style="opacity:0.5;fill:url(#SVGID_13_);" points="83.147,78.779 88.833,81.721 91.794,76.383 86.349,73.334 	"/>
	<path style="fill:#FFFFFF;" d="M84.729,59.763c1.819,0.041,3.159,1.442,3.129,3.269c-0.029,1.747-1.538,3.203-3.288,3.174
		c-1.674-0.028-3.217-1.65-3.173-3.334C81.443,61.141,82.962,59.723,84.729,59.763z"/>
	<path style="fill:#FFFFFF;" d="M91.271,72.699c-1.805,0.033-3.238-1.342-3.273-3.138c-0.035-1.79,1.359-3.262,3.129-3.306
		c1.72-0.042,3.296,1.454,3.332,3.163C94.496,71.147,93.018,72.667,91.271,72.699z"/>
	<path style="fill:#FFFFFF;" d="M84.55,79.222c-1.771-0.051-3.246-1.617-3.145-3.339c0.098-1.676,1.583-3.093,3.248-3.098
		c1.754-0.005,3.23,1.515,3.201,3.297C87.825,77.91,86.388,79.275,84.55,79.222z"/>
	<path style="fill:#FFFFFF;" d="M78.213,66.26c1.768,0.035,3.154,1.518,3.107,3.322c-0.047,1.798-1.489,3.163-3.3,3.123
		c-1.758-0.039-3.202-1.559-3.138-3.303C74.946,67.657,76.463,66.226,78.213,66.26z"/>
</g>
</svg>
