<?xml version="1.0" encoding="iso-8859-1"?>
<!-- Generator: Adobe Illustrator 17.0.0, SVG Export Plug-In . SVG Version: 6.00 Build 0)  -->
<!DOCTYPE svg PUBLIC "-//W3C//DTD SVG 1.1//EN" "http://www.w3.org/Graphics/SVG/1.1/DTD/svg11.dtd">
<svg version="1.1" id="Layer_1" xmlns="http://www.w3.org/2000/svg" xmlns:xlink="http://www.w3.org/1999/xlink" x="0px" y="0px"
	 width="130px" height="130px" viewBox="0 0 130 130" style="enable-background:new 0 0 130 130;" xml:space="preserve">
<g>
	<defs>
		<rect id="SVGID_3_" x="-2141" y="-904" width="1280" height="2075"/>
	</defs>
	<clipPath id="SVGID_4_">
		<use xlink:href="#SVGID_3_"  style="overflow:visible;"/>
	</clipPath>
	<g transform="matrix(1 0 0 1 2.441406e-004 -6.103516e-005)" style="clip-path:url(#SVGID_4_);">
		
			<image style="overflow:visible;" width="4884" height="3256" xlink:href="D:\Work\Stratadigm\IKMsqwyaR6qN0kq48STw_annapurna.jpg"  transform="matrix(0.6511 0 0 0.6511 -3090.6589 -904.0007)">
		</image>
	</g>
</g>
<g>
	<g>
		<g>
			<path style="fill:#F6E431;" d="M68.588,76.985c-0.72,0-1.44,0.007-2.16-0.001c-1.322-0.015-2.225-0.936-2.228-2.266
				c-0.002-1.067-0.044-2.136,0.015-3.199c0.037-0.667-0.175-1.014-0.77-1.36c-3.595-2.086-5.428-5.262-5.456-9.403
				c-0.037-5.439,4.453-10.117,9.911-10.43c5.619-0.322,10.528,3.671,11.201,9.112c0.565,4.565-1.464,8.583-5.504,10.819
				c-0.466,0.258-0.622,0.537-0.606,1.053c0.038,1.172,0.015,2.346,0.008,3.52c-0.007,1.206-0.948,2.139-2.172,2.154
				C70.081,76.992,69.335,76.985,68.588,76.985z"/>
		</g>
		<path style="fill:#00A99D;" d="M91.599,83.895c2.858-4.002,4.977-8.36,6.3-13.097c1.717-6.145,1.938-12.31-0.045-18.428
			c-4.42-13.638-16.996-22.116-31.255-20.897c-10.172,0.869-17.901,5.917-23.245,14.571c-2.835,4.59-4.123,9.67-4.241,15.044
			c-0.074,3.337-1.138,6.254-3.424,8.712c-0.944,1.015-1.881,2.04-2.778,3.096c-0.934,1.101-1.767,2.279-2.099,3.722
			c-0.265,1.15,0.15,1.808,1.286,2.038c1.409,0.285,2.822,0.55,4.238,0.804c1.096,0.197,1.081-0.072,0.904,1.29
			c-0.448,3.464-0.624,6.89,0.946,10.187c0.676,1.42,0.983,2.948,0.933,4.571c-0.045,1.467,0.514,2.817,1.46,3.969
			c0.535,0.651,1.202,0.995,2.081,0.987c2.88-0.025,5.765,0.082,8.64-0.039c2.341-0.098,3.977,0.908,5.27,2.715
			c1.635,2.286,2.603,4.868,3.333,7.552c0.128,0.471,0.303,0.701,0.848,0.66c0.795-0.06,1.599-0.015,2.399-0.015
			c4.67-0.238,9.292-0.817,13.866-1.771c5.011-1.046,9.906-2.477,14.63-4.469c0.483-0.204,0.598-0.355,0.25-0.82
			c-0.751-1.002-1.386-2.082-1.962-3.196c-1.647-3.185-2.492-6.505-1.71-10.1C88.794,88.355,90.056,86.056,91.599,83.895z
			 M84.57,60.863c-0.275,5.453-2.744,9.703-7.271,12.745c-0.415,0.279-0.53,0.567-0.527,1.038c0.018,2.827-0.086,5.658,0.03,8.48
			c0.105,2.57-2.905,5.419-5.231,5.243c-2.042-0.155-4.105-0.014-6.159-0.038c-2.468-0.029-4.91-2.5-4.957-4.98
			C60.428,81.911,60.45,80,60.45,79c-0.003,0-0.005,0-0.008,0c0-2-0.018-2.957,0.011-4.45c0.009-0.456-0.144-0.699-0.523-0.947
			c-5.515-3.613-8.281-10.05-7.057-16.389c1.238-6.415,6.18-11.398,12.618-12.73C75.535,42.405,85.088,50.589,84.57,60.863z"/>
	</g>
	<path style="fill:#F6E431;" d="M72,83.399C72,84.283,71.283,85,70.399,85h-3.799C65.717,85,65,84.283,65,83.399v-2.799
		C65,79.717,65.717,79,66.601,79h3.799C71.283,79,72,79.717,72,80.601V83.399z"/>
</g>
</svg>
