<?xml version="1.0" encoding="iso-8859-1"?>
<!-- Generator: Adobe Illustrator 17.0.0, SVG Export Plug-In . SVG Version: 6.00 Build 0)  -->
<!DOCTYPE svg PUBLIC "-//W3C//DTD SVG 1.1//EN" "http://www.w3.org/Graphics/SVG/1.1/DTD/svg11.dtd">
<svg version="1.1" id="Layer_1" xmlns="http://www.w3.org/2000/svg" xmlns:xlink="http://www.w3.org/1999/xlink" x="0px" y="0px"
	 width="130px" height="130px" viewBox="0 0 130 130" style="enable-background:new 0 0 130 130;" xml:space="preserve">
<g>
	<defs>
		<rect id="SVGID_3_" x="-2141" y="-1573" width="1280" height="2075"/>
	</defs>
	<clipPath id="SVGID_4_">
		<use xlink:href="#SVGID_3_"  style="overflow:visible;"/>
	</clipPath>
	<g transform="matrix(1 0 0 1 2.441406e-004 0)" style="clip-path:url(#SVGID_4_);">
		
			<image style="overflow:visible;" width="4884" height="3256" xlink:href="D:\Work\Stratadigm\IKMsqwyaR6qN0kq48STw_annapurna.jpg"  transform="matrix(0.6511 0 0 0.6511 -3090.6589 -1573.0007)">
		</image>
	</g>
</g>
<g>
	<path style="fill:#334D5C;" d="M36.801,27.39c2.545-0.039,5.089-0.108,7.634-0.113c7.275-0.015,14.55-0.012,21.825-0.004
		c8.148,0.009,16.296,0.024,24.444,0.054c0.831,0.003,1.67-0.201,2.495,0.063c0.326,0.278,0.458,0.638,0.479,1.059
		c0.022,0.437,0.032,0.873,0.032,1.31c0.002,18.388,0.005,36.775-0.01,55.163c-0.001,0.81,0.22,1.698-0.491,2.375
		c-2.945,0.035-5.891,0.092-8.836,0.1c-5.566,0.016-11.132,0.009-16.698,0.004c-6.257-0.005-12.514-0.018-18.771-0.026
		c-3.602-0.005-7.204-0.004-10.806-0.012c-0.435-0.001-0.87-0.043-1.305-0.066c-0.316-0.285-0.449-0.645-0.468-1.067
		c-0.02-0.437-0.03-0.873-0.031-1.31c-0.002-18.387-0.005-36.773,0.01-55.16C36.305,28.952,36.08,28.062,36.801,27.39z"/>
	<path style="fill:#DFEAF3;" d="M36.801,27.39c0.005,14.004,0.013,28.008,0.014,42.012c0,5.965-0.015,11.93-0.023,17.895
		c-2.655,0-5.311,0.023-7.966-0.008c-2.411-0.028-3.823-1.496-3.824-3.926c-0.003-17.35-0.004-34.7,0-52.049
		c0.001-2.44,1.489-3.921,3.942-3.929C31.564,27.375,34.182,27.387,36.801,27.39z"/>
	<path style="fill:#DFEAF3;" d="M93.208,87.296c-0.009-8.875-0.025-17.75-0.026-26.625c-0.001-11.094,0.011-22.188,0.017-33.282
		c2.695,0.002,5.39-0.002,8.084,0.009c2.181,0.009,3.71,1.529,3.712,3.708c0.006,10.269,0.002,20.539,0.003,30.808
		c0,7.028,0.005,14.057,0.002,21.085c-0.001,2.905-1.379,4.297-4.253,4.302C98.233,87.307,95.721,87.299,93.208,87.296z"/>
	<path style="fill:#DF5B49;" d="M84.033,57.418c-0.063,11.247-9.129,20.237-20.364,20.194c-11.211-0.043-20.188-9.23-20.099-20.569
		c0.086-11.006,9.224-20.019,20.256-19.98C75.05,37.103,84.095,46.215,84.033,57.418z"/>
	<path style="fill:#334D5C;" d="M27.686,50.427c0-0.909,0.016-1.818-0.006-2.726c-0.013-0.521,0.113-0.81,0.72-0.8
		c1.672,0.026,3.344,0.015,5.016,0c0.472-0.004,0.642,0.197,0.64,0.651c-0.01,1.89-0.008,3.78-0.003,5.671
		c0.001,0.38-0.094,0.614-0.546,0.611c-1.745-0.013-3.49-0.017-5.234,0.003c-0.516,0.006-0.598-0.265-0.593-0.682
		c0.01-0.909,0.003-1.818,0.003-2.726C27.684,50.427,27.685,50.427,27.686,50.427z"/>
	<path style="fill:#344D5C;" d="M34.065,74.146c0,0.909-0.02,1.818,0.007,2.726c0.017,0.557-0.186,0.774-0.757,0.765
		c-1.636-0.027-3.272-0.02-4.908-0.006c-0.488,0.004-0.732-0.135-0.726-0.677c0.021-1.854,0.019-3.708,0-5.562
		c-0.005-0.509,0.165-0.708,0.691-0.701c1.672,0.024,3.345,0.026,5.017,0.001c0.552-0.008,0.678,0.248,0.669,0.727
		c-0.017,0.909-0.005,1.818-0.005,2.727C34.058,74.146,34.062,74.146,34.065,74.146z"/>
	<path style="fill:#334D5C;" d="M34.055,38.515c0.002,0.874-0.019,1.749,0.009,2.622c0.017,0.528-0.104,0.802-0.714,0.791
		c-1.638-0.032-3.277-0.028-4.916-0.005c-0.569,0.008-0.761-0.207-0.754-0.769c0.023-1.784,0.022-3.569-0.007-5.353
		c-0.009-0.551,0.135-0.78,0.729-0.768c1.638,0.034,3.278,0.034,4.916,0.003c0.572-0.011,0.767,0.181,0.745,0.748
		C34.027,36.693,34.053,37.605,34.055,38.515z"/>
	<path style="fill:#334D5C;" d="M34.063,62.469c-0.107,0.972,0.472,2.359-0.239,3.038c-0.649,0.62-2.013,0.198-3.057,0.166
		c-0.999-0.03-2.327,0.482-2.903-0.227c-0.488-0.602-0.16-1.875-0.173-2.851c-0.013-1.018,0.017-2.037-0.009-3.055
		c-0.013-0.507,0.152-0.714,0.684-0.706c1.673,0.024,3.346,0.024,5.019-0.001c0.527-0.008,0.701,0.186,0.686,0.698
		C34.043,60.476,34.063,61.422,34.063,62.469z"/>
	<path style="fill:#334D5C;" d="M95.946,50.078c0.114-0.831-0.488-2.263,0.242-2.968c0.672-0.65,2.081-0.207,3.161-0.186
		c0.961,0.019,2.2-0.455,2.811,0.241c0.547,0.622,0.121,1.815,0.145,2.755c0.026,1.053-0.015,2.109,0.017,3.162
		c0.017,0.557-0.163,0.771-0.744,0.76c-1.635-0.03-3.272-0.03-4.906,0.005c-0.595,0.013-0.75-0.225-0.733-0.766
		C95.966,52.173,95.946,51.264,95.946,50.078z"/>
	<path style="fill:#344D5C;" d="M102.311,74.115c0,0.909-0.018,1.818,0.008,2.725c0.015,0.53-0.119,0.801-0.723,0.789
		c-1.635-0.03-3.271-0.029-4.906,0c-0.577,0.01-0.762-0.214-0.757-0.765c0.018-1.817,0.013-3.634,0.001-5.451
		c-0.003-0.481,0.131-0.732,0.677-0.725c1.671,0.022,3.343,0.02,5.015-0.004c0.526-0.007,0.705,0.198,0.692,0.704
		C102.293,72.298,102.31,73.207,102.311,74.115z"/>
	<path style="fill:#334D5C;" d="M95.943,38.437c0-0.837,0.029-1.676-0.01-2.511c-0.029-0.62,0.101-0.918,0.826-0.894
		c1.6,0.055,3.203,0.036,4.805,0.005c0.559-0.011,0.77,0.147,0.759,0.732c-0.032,1.783-0.035,3.568-0.001,5.351
		c0.012,0.638-0.239,0.813-0.834,0.802c-1.601-0.027-3.204-0.028-4.805,0c-0.57,0.01-0.777-0.189-0.756-0.756
		c0.033-0.909,0.009-1.82,0.009-2.73C95.938,38.437,95.941,38.437,95.943,38.437z"/>
	<path style="fill:#334D5C;" d="M102.316,62.286c0,0.873-0.035,1.748,0.012,2.619c0.034,0.637-0.212,0.813-0.819,0.8
		c-1.6-0.034-3.201-0.031-4.801-0.006c-0.544,0.008-0.783-0.133-0.773-0.728c0.03-1.818,0.023-3.638-0.001-5.456
		c-0.007-0.525,0.182-0.691,0.697-0.683c1.637,0.025,3.275,0.037,4.911-0.002c0.655-0.015,0.803,0.255,0.779,0.839
		c-0.036,0.872-0.009,1.746-0.009,2.619C102.313,62.286,102.315,62.286,102.316,62.286z"/>
	<path style="fill:#FDFDFD;" d="M55.006,57.327c0-5.121,0-10.243,0-15.616c7.506,5.216,14.882,10.342,22.257,15.467
		c-0.468,0.641-1.201,0.642-1.854,0.647c-6.385,0.053-12.77,0.052-19.156,0.009C55.78,57.831,55.298,57.8,55.006,57.327z"/>
	<path style="fill:#C7C7C7;" d="M55.006,57.327c7.137,0.003,14.274,0.007,21.412,0.009c0.291,0,0.585,0.012,0.845-0.159
		c0.262,0.373-0.142,0.437-0.297,0.544c-7.133,4.963-14.275,9.914-21.418,14.864c-0.114,0.079-0.254,0.121-0.542,0.254
		C55.006,67.601,55.006,62.464,55.006,57.327z"/>
</g>
</svg>
