<?xml version="1.0" encoding="iso-8859-1"?>
<!-- Generator: Adobe Illustrator 17.0.0, SVG Export Plug-In . SVG Version: 6.00 Build 0)  -->
<!DOCTYPE svg PUBLIC "-//W3C//DTD SVG 1.1//EN" "http://www.w3.org/Graphics/SVG/1.1/DTD/svg11.dtd">
<svg version="1.1" id="Layer_1" xmlns="http://www.w3.org/2000/svg" xmlns:xlink="http://www.w3.org/1999/xlink" x="0px" y="0px"
	 width="130px" height="130px" viewBox="0 0 130 130" style="enable-background:new 0 0 130 130;" xml:space="preserve">
<g>
	<defs>
		<rect id="SVGID_3_" x="-1758" y="-580" width="1280" height="2075"/>
	</defs>
	<clipPath id="SVGID_4_">
		<use xlink:href="#SVGID_3_"  style="overflow:visible;"/>
	</clipPath>
	<g style="clip-path:url(#SVGID_4_);">
		
			<image style="overflow:visible;" width="4884" height="3256" xlink:href="D:\Work\Stratadigm\IKMsqwyaR6qN0kq48STw_annapurna.jpg"  transform="matrix(0.6511 0 0 0.6511 -2707.6589 -580.0007)">
		</image>
	</g>
</g>
<g>
	<g>
		<path style="fill:#EBBE61;" d="M95.773,76.847v-6.671H65.751v-2.502h29.883c-0.015-5.004-4.031-9.007-9.035-9.021v-10.38
			c0-12.281-9.843-22.237-22.1-22.237c-12.282,0-22.1,9.953-22.1,22.237v10.38c-5.004,0.014-9.174,3.972-9.174,8.924v29.595
			c0,4.928,4.129,8.864,9.061,8.864h44.425c4.918,0,8.906-4.17,8.922-9.173H65.751V94.36h30.022v-5.838H65.751v-3.336h30.022v-5.838
			H65.751v-2.502H95.773z M50.74,58.5V48.277c0-7.388,5.974-13.346,13.343-13.346c7.354,0,13.343,5.975,13.343,13.346V58.5H50.74z"
			/>
	</g>
</g>
</svg>
