<?xml version="1.0" encoding="iso-8859-1"?>
<!-- Generator: Adobe Illustrator 17.0.0, SVG Export Plug-In . SVG Version: 6.00 Build 0)  -->
<!DOCTYPE svg PUBLIC "-//W3C//DTD SVG 1.1//EN" "http://www.w3.org/Graphics/SVG/1.1/DTD/svg11.dtd">
<svg version="1.1" id="Layer_1" xmlns="http://www.w3.org/2000/svg" xmlns:xlink="http://www.w3.org/1999/xlink" x="0px" y="0px"
	 width="130px" height="130px" viewBox="0 0 130 130" style="enable-background:new 0 0 130 130;" xml:space="preserve">
<g>
	<path style="fill:#76B2D3;" d="M67.486,26.192c1.15,0.152,2.299,0.303,3.449,0.457c3.623,0.485,7.083,1.541,10.413,3.027
		c2.688,1.199,5.218,2.673,7.553,4.473c0.222,0.374,0.248,0.785,0.248,1.207c-0.002,4.01,0.003,8.019-0.004,12.029
		c-0.002,1.246-0.154,1.402-1.391,1.404c-7.03,0.007-14.06,0.005-21.09,0.001c-0.312,0-0.626,0.008-0.925-0.111
		c-0.098-0.046-0.175-0.115-0.234-0.205c-0.169-0.34-0.147-0.708-0.147-1.069c-0.004-6.674-0.004-13.348,0.001-20.022
		c0-0.41-0.052-0.84,0.252-1.189C66.236,26.192,66.861,26.192,67.486,26.192z"/>
	<path style="fill:#76B2D3;" d="M62.643,26.192c0.781,0,1.563,0,2.344,0c0.335,0.401,0.248,0.886,0.249,1.345
		c0.006,6.491,0,12.983,0.01,19.474c0.001,0.527-0.133,1.109,0.367,1.525l-0.001-0.001c0.165,0.226,0.183,0.448-0.018,0.666
		c-0.247,0.147-0.481,0.118-0.704-0.054c-0.261-0.393-0.68-0.338-1.058-0.348c-1.065-0.026-2.131-0.01-3.197-0.01
		c-5.537-0.001-11.073,0-16.61,0c-0.26,0-0.52,0.005-0.78-0.005c-0.959-0.036-1.155-0.204-1.158-1.156
		c-0.017-4.523-0.012-9.046-0.004-13.569c0-0.208,0.02-0.415,0.063-0.618c0.092-0.386,0.388-0.604,0.693-0.805
		c5.073-3.344,10.611-5.46,16.638-6.264C60.523,26.233,61.591,26.331,62.643,26.192z"/>
	<path style="fill:#77B2D3;" d="M24.986,63.692c0.148-1.119,0.293-2.239,0.445-3.358c0.526-3.896,1.679-7.604,3.346-11.158
		c0.275-0.242,0.611-0.265,0.953-0.266c3.638-0.006,7.276-0.013,10.914,0.004c0.991,0.005,1.289,0.251,1.297,1.146
		c0.032,3.664,0.032,7.327,0.002,10.991c-0.001,0.13-0.025,0.258-0.058,0.383c-0.13,0.414-0.48,0.518-0.848,0.573
		c-3.24,0.488-5.851,4.021-4.611,7.633c0.083,0.243,0.176,0.496,0.023,0.751c-0.702,0.778-1.421,1.539-2.215,2.227
		c-0.288,0.121-0.576,0.228-0.897,0.228c-2.332-0.001-4.664,0.006-6.996-0.009c-0.338-0.002-0.685-0.028-0.864-0.397
		c-0.163-1.249-0.327-2.499-0.491-3.748C24.986,67.025,24.986,65.359,24.986,63.692z"/>
	<path style="fill:#9AC5DD;" d="M65.612,48.536c-0.724,0.101-0.627-0.405-0.627-0.844c0.001-7.167,0.001-14.334,0.001-21.501
		c0.208,0,0.417,0,0.625,0C65.612,33.64,65.612,41.088,65.612,48.536z"/>
	<path style="fill:#102947;" d="M104.982,64.789c0.211,9.125-2.202,17.471-7.613,24.849c-6.367,8.683-14.867,14.093-25.502,15.925
		c-11.361,1.957-21.721-0.588-30.974-7.444c-5.339-3.956-9.38-9.018-12.185-15.053c-0.03-0.4,0.286-0.591,0.515-0.822
		c1.682-1.693,3.352-3.398,5.066-5.058c1.268-1.228,2.365-2.615,3.654-3.821c0.224-0.21,0.407-0.478,0.735-0.553
		c0.525,0.056,0.948,0.386,1.444,0.532c2.242,0.656,4.234,0.296,5.923-1.387c0.218-0.217,0.421-0.462,0.75-0.521
		c0.271,0.005,0.497,0.141,0.726,0.259c3.738,1.924,7.562,3.675,11.311,5.578c0.342,0.174,0.729,0.293,0.942,0.658
		c0.083,0.898-0.129,1.792,0.067,2.704c0.575,2.677,2.93,4.68,5.648,4.725c2.732,0.046,5.149-1.858,5.816-4.515
		c0.32-1.272,0.141-2.468-0.302-3.661c-0.108-0.291-0.281-0.559-0.307-0.878c0.027-0.317,0.27-0.494,0.469-0.693
		c3.753-3.752,7.659-7.346,11.429-11.083c0.81-0.803,1.666-1.567,2.487-2.365c0.223-0.216,0.434-0.458,0.779-0.48
		c0.245-0.001,0.447,0.121,0.657,0.223c2.526,1.218,5.132,0.755,7.067-1.253c0.179-0.185,0.324-0.411,0.583-0.505
		c0.355-0.079,0.666,0.071,0.974,0.204c3.032,1.312,6.069,2.609,9.115,3.888C104.547,64.364,104.835,64.479,104.982,64.789z"/>
	<path style="fill:#76B2D3;" d="M89.686,34.773c4.75,3.674,8.441,8.213,11.087,13.602c-0.078,0.436-0.448,0.394-0.732,0.397
		c-3.272,0.032-6.545,0.04-9.818-0.001c-0.778-0.01-0.948-0.247-0.954-1.189c-0.018-2.545-0.006-5.091-0.007-7.636
		c0-1.403-0.016-2.805,0.01-4.208C89.279,35.378,89.183,34.937,89.686,34.773z"/>
	<path style="fill:#76B2D3;" d="M101.194,49.177c1.598,3.373,2.653,6.915,3.287,10.587c0.043,0.251,0.155,0.568-0.047,0.744
		c-0.189,0.166-0.443-0.058-0.648-0.145c-2.461-1.042-4.917-2.097-7.376-3.144c-0.356-0.152-0.724-0.277-1.086-0.415
		c-0.223-0.155-0.201-0.404-0.239-0.63c-0.522-3.052-2.18-4.728-5.206-5.257c-0.326-0.057-0.625-0.119-0.614-0.547
		c0.062-1.264,0.24-1.453,1.474-1.457c3.116-0.01,6.232-0.005,9.348-0.001C100.474,48.913,100.872,48.89,101.194,49.177z"/>
	<path style="fill:#CF5D36;" d="M89.341,50.596c1.383,0.146,2.681,0.519,3.763,1.445c1.46,1.25,2.166,2.855,2.219,4.763
		c-0.014,0.265-0.029,0.53-0.043,0.796c-0.064,0.983-0.173,1.948-1.043,2.609c-1.816,2.405-5.092,3.556-8.463,1.57
		c-0.882-0.257-1.313-1.009-1.833-1.664c-0.186-0.333-0.348-0.679-0.532-1.014c-1.753-4.265,1.6-8.757,5.713-8.607
		C89.21,50.495,89.283,50.529,89.341,50.596z"/>
	<path style="fill:#CF5D36;" d="M46.831,71.53c-1.406,1.566-3.102,2.458-5.265,2.324c-1.062-0.066-2.002-0.468-2.928-0.939
		c-0.871-0.298-1.461-0.877-1.756-1.752c-0.145-0.257-0.29-0.514-0.434-0.771c-0.821-2.11-0.764-4.148,0.55-6.056
		c1.131-1.643,2.763-2.434,4.703-2.664c0.167-0.168,0.374-0.203,0.598-0.181c1.4,0.153,2.696,0.589,3.766,1.529
		c1.56,1.37,2.255,3.132,2.236,5.192c-0.059,0.36-0.136,0.716-0.208,1.073C47.785,70.096,47.658,71.01,46.831,71.53z"/>
	<path style="fill:#CEE4FD;" d="M36.883,71.163c0.518,0.652,1.094,1.245,1.756,1.752c-3.31,3.384-6.621,6.767-9.931,10.151
		c-0.466-0.606-0.638-1.346-0.935-2.029c-0.126-0.29-0.066-0.483,0.154-0.682c0.25-0.226,0.482-0.473,0.718-0.714
		c2.652-2.703,5.303-5.407,7.953-8.113C36.704,71.419,36.788,71.286,36.883,71.163z"/>
	<path style="fill:#9AC5DD;" d="M89.341,50.596l-0.058,0.013l-0.056-0.02c-0.486,0.136-0.517-0.254-0.564-0.538
		c-0.081-0.493-0.381-0.632-0.822-0.634c-0.286-0.001-0.572-0.006-0.857-0.006c-6.652,0-13.304,0.001-19.956-0.003
		c-0.438,0-0.887,0.061-1.304-0.143c-0.037-0.034-0.075-0.069-0.112-0.104c-0.001-0.209-0.001-0.418-0.002-0.627
		c7.462,0,14.924-0.009,22.386,0.017c0.717,0.002,0.916-0.191,0.911-0.91c-0.029-4.498-0.01-8.996-0.007-13.494
		c0.26,0.21,0.591,0.331,0.784,0.625c-0.223,0.173-0.165,0.423-0.165,0.649c-0.003,4.136,0.006,8.272-0.012,12.408
		c-0.002,0.534,0.146,0.723,0.702,0.719c3.303-0.022,6.607-0.011,9.91-0.015c0.226,0,0.476,0.062,0.651-0.16
		c0.219,0.226,0.32,0.514,0.421,0.801c-3.566-0.005-7.132,0.008-10.698-0.028c-0.73-0.007-1.094,0.179-0.982,0.958
		C89.541,50.289,89.511,50.473,89.341,50.596z"/>
	<path style="fill:#77B2D3;" d="M33.567,73.366c-1.964,2.008-3.929,4.016-5.891,6.026c-0.284,0.291-0.398,0.194-0.515-0.153
		c-0.662-1.965-1.245-3.949-1.528-6.009c0.737-0.448,1.595-0.352,2.355-0.301c1.562,0.104,3.122-0.137,4.675,0.063
		C32.99,73.034,33.424,72.862,33.567,73.366z"/>
	<path style="fill:#CDE3FD;" d="M94.237,60.208c0.517-0.802,0.808-1.695,1.043-2.609c0.004,0.256,0.101,0.397,0.369,0.51
		c2.848,1.194,5.686,2.409,8.526,3.623c0.279,0.119,0.565,0.321,0.572-0.313c0.099,1.183,0.356,2.264,0.236,3.37
		C101.4,63.262,97.818,61.735,94.237,60.208z"/>
	<path style="fill:#97C4DD;" d="M33.567,73.366c-0.859-0.312-1.777-0.198-2.647-0.219c-0.939-0.022-1.881,0.02-2.83-0.015
		c-0.806-0.03-1.635,0.086-2.457,0.097c-0.052-0.263-0.224-0.503-0.156-0.79c0.302,0.21,0.647,0.153,0.98,0.154
		c2.592,0.01,5.185,0.017,7.777,0.025C34.004,72.861,33.893,73.209,33.567,73.366z"/>
	<path style="fill:#9AC5DD;" d="M42.327,61.672c-0.208,0-0.417,0-0.625,0c0.001-3.88-0.007-7.759,0.014-11.639
		c0.003-0.619-0.156-0.887-0.831-0.882c-4.035,0.028-8.071,0.02-12.107,0.025c0.101-0.288,0.202-0.577,0.422-0.802
		c0.358-0.083,0.72-0.091,1.085-0.091c3.359,0.004,6.718,0.004,10.076,0.001c1.06-0.001,1.09-0.031,1.091-1.099
		c0.004-4.088,0.003-8.176-0.001-12.264c0-0.366,0.016-0.727,0.082-1.087c0.2-0.29,0.522-0.417,0.8-0.603
		c-0.001,4.838,0.011,9.676-0.019,14.514c-0.004,0.684,0.243,0.807,0.857,0.805c6.971-0.019,13.941-0.013,20.912-0.014
		c0.446,0,0.941-0.074,0.901,0.626c-0.038,0.034-0.076,0.068-0.114,0.103c-0.417,0.205-0.866,0.145-1.304,0.145
		c-6.471,0.004-12.942,0.003-19.413,0.003c-0.182,0-0.364-0.002-0.546,0.001c-0.966,0.016-1.021,0.059-1.023,1.015
		c-0.007,3.326,0.002,6.653-0.007,9.979C42.577,60.84,42.668,61.302,42.327,61.672z"/>
	<path style="fill:#9AC5DD;" d="M64.985,49.162c0.209,0,0.418,0,0.627,0L65.61,49.16c0.249,0.275,0.251,0.618,0.251,0.956
		c0.006,7.148,0.007,14.297,0,21.445c0,0.234-0.008,0.468-0.072,0.696c-0.046,0.155-0.129,0.285-0.261,0.38
		c-0.145,0.081-0.297,0.091-0.453,0.037c-0.148-0.08-0.226-0.211-0.273-0.366c-0.091-0.357-0.069-0.722-0.069-1.085
		c-0.002-6.907-0.003-13.813,0.002-20.72c0-0.459-0.084-0.944,0.253-1.345L64.985,49.162z"/>
	<path style="fill:#76B2D3;" d="M41.534,33.834c0.25,0.196,0.169,0.475,0.169,0.725c0.004,4.397-0.008,8.794,0.014,13.191
		c0.003,0.604-0.151,0.805-0.783,0.8c-3.668-0.029-7.337-0.013-11.005-0.018c-0.249,0-0.528,0.084-0.729-0.16
		c2.38-4.928,5.731-9.097,9.88-12.642C39.867,35.058,40.645,34.375,41.534,33.834z"/>
	<path style="fill:#CF5D36;" d="M70.768,76.196c1.051,1.941,1.283,3.928,0.29,5.963c-1.319,2.706-4.466,4.044-7.29,3.116
		c-2.958-0.972-4.679-3.848-4.129-6.895c0.027-0.152,0.018-0.31,0.026-0.465c0.034-0.879,0.483-1.575,0.984-2.25
		c0.29-0.31,0.597-0.603,0.885-0.916c2.035-1.717,4.279-1.988,6.709-0.972c0.245,0.118,0.48,0.256,0.707,0.407
		C69.648,74.771,70.471,75.247,70.768,76.196z"/>
	<path style="fill:#CEE4FD;" d="M70.768,76.196c-0.546-0.699-1.163-1.326-1.868-1.864c1.774-1.52,3.264-3.338,5.061-4.833
		c0.12-0.1,0.237-0.203,0.345-0.315c2.353-2.459,4.932-4.688,7.297-7.135c0.614-0.635,1.353-1.134,1.955-1.785
		c0.136-0.147,0.301-0.303,0.543-0.198c0.479,0.647,1.068,1.187,1.672,1.713c-4.812,4.63-9.623,9.26-14.435,13.89
		C71.152,75.848,70.959,76.021,70.768,76.196z"/>
	<path style="fill:#CDE3FD;" d="M60.772,75.73c-0.453,0.686-0.778,1.436-1.107,2.185c-4.278-2.128-8.556-4.257-12.834-6.385
		c0.456-0.702,0.805-1.457,1.099-2.239c0.687,0.092,1.269,0.469,1.865,0.765c3.4,1.692,6.825,3.335,10.205,5.068
		C60.293,75.274,60.649,75.358,60.772,75.73z"/>
	<path style="fill:#76B2D3;" d="M65.609,72.442c0-7.761,0.001-15.522,0.001-23.283c7.399,0.001,14.798,0.011,22.197-0.01
		c0.754-0.002,1.233,0.107,1.092,1.002c-0.038,0.238,0.075,0.4,0.329,0.438c-0.482,0.074-0.975,0.106-1.444,0.229
		c-3.517,0.922-5.408,4.355-4.335,7.841c0.053,0.171,0.105,0.343,0.157,0.514c-0.17,0.749-0.826,1.1-1.325,1.565
		c-0.34,0.318-0.712,0.606-1.036,0.944c-2.306,2.4-4.785,4.623-7.157,6.956c-1.24,1.219-2.501,2.422-3.75,3.634
		c-0.244,0.237-0.488,0.475-0.861,0.488c-0.957-0.107-1.913-0.142-2.872-0.033C66.237,72.771,65.876,72.766,65.609,72.442z"/>
	<path style="fill:#FDFDFD;" d="M89.222,60.59c-2.142,0.001-3.89-1.718-3.899-3.833c-0.009-2.201,1.76-3.952,3.973-3.934
		c2.067,0.017,3.806,1.773,3.815,3.851C93.121,58.857,91.4,60.59,89.222,60.59z"/>
	<path style="fill:#FDFDFE;" d="M69.651,72.589c1.473-1.394,2.956-2.778,4.416-4.185c3.186-3.07,6.36-6.152,9.538-9.229
		c0.166,0.297,0.331,0.595,0.496,0.892c-0.682,0.597-1.389,1.168-2.04,1.797c-2.337,2.259-4.624,4.57-6.989,6.798
		c-1.742,1.64-3.44,3.322-5.144,5.001c-0.295,0.29-0.613,0.56-1.029,0.669c-0.199-0.113-0.399-0.226-0.599-0.339
		c-0.085-0.539,0.459-0.595,0.689-0.893C69.164,72.873,69.434,72.764,69.651,72.589z"/>
	<path style="fill:#76B2D3;" d="M64.988,49.159c-0.002,7.76-0.004,15.52-0.006,23.28c-0.693,0.382-1.452,0.293-2.193,0.282
		c-1.812-0.026-3.623-0.049-5.432,0.011c-0.324,0.055-0.612-0.062-0.898-0.193c-2.601-1.194-5.148-2.497-7.708-3.774
		c-0.261-0.13-0.499-0.279-0.645-0.542c-0.154-3.369-1.759-5.559-4.639-6.317c-0.375-0.099-0.759-0.158-1.139-0.235
		c0.001-3.9,0.016-7.799-0.012-11.698c-0.005-0.656,0.193-0.826,0.836-0.825C50.43,49.169,57.709,49.16,64.988,49.159z"/>
	<path style="fill:#FDFDFD;" d="M41.989,71.664c-2.153,0.008-3.873-1.691-3.88-3.833c-0.007-2.177,1.725-3.938,3.879-3.943
		c2.104-0.005,3.877,1.753,3.899,3.867C45.91,69.923,44.183,71.656,41.989,71.664z"/>
	<path style="fill:#FBFCFC;" d="M48.106,68.224c2.847,1.405,5.693,2.812,8.541,4.214c0.159,0.078,0.337,0.118,0.507,0.176
		c0.906,0.088,1.556,0.758,2.377,1.05c0.53,0.188,1.024,0.479,1.522,0.746c0.211,0.114,0.507,0.174,0.491,0.515
		c-0.257,0.269-0.515,0.537-0.772,0.806c-3.186-1.569-6.338-3.206-9.549-4.727c-1.114-0.528-2.272-0.995-3.293-1.713
		C47.989,68.935,48.048,68.579,48.106,68.224z"/>
	<path style="fill:#88BBD8;" d="M61.544,74.924c-1.427-0.84-2.995-1.412-4.39-2.311c0.119-0.051,0.238-0.145,0.357-0.145
		c1.775-0.003,3.552-0.031,5.325,0.03c0.722,0.025,1.429-0.157,2.146-0.059c0.055,0.055,0.109,0.111,0.164,0.166
		c0.063,0.074,0.049,0.236,0.155,0.233c0.1-0.003,0.088-0.165,0.154-0.239c0.051-0.052,0.103-0.105,0.154-0.157
		c0.71,0.225,1.417-0.044,2.129-0.01c0.641,0.031,1.283,0.001,1.913,0.157c-0.343,0.571-0.961,0.877-1.35,1.404
		C65.864,72.962,63.613,73.282,61.544,74.924z"/>
	<path style="fill:#76B2D3;" d="M65.455,72.599c0.063,0.197,0.289,0.411-0.011,0.581c-0.085,0.048-0.271,0.027-0.346-0.037
		c-0.208-0.179-0.018-0.36,0.048-0.537C65.249,72.603,65.352,72.601,65.455,72.599z"/>
	<path style="fill:#FDFDFD;" d="M65.619,83.378c-2.173-0.006-3.906-1.744-3.91-3.919c-0.003-2.103,1.783-3.889,3.882-3.879
		c2.159,0.01,3.93,1.786,3.92,3.932C69.501,81.626,67.731,83.384,65.619,83.378z"/>
</g>
</svg>
