<?xml version="1.0" encoding="iso-8859-1"?>
<!-- Generator: Adobe Illustrator 17.0.0, SVG Export Plug-In . SVG Version: 6.00 Build 0)  -->
<!DOCTYPE svg PUBLIC "-//W3C//DTD SVG 1.1//EN" "http://www.w3.org/Graphics/SVG/1.1/DTD/svg11.dtd">
<svg version="1.1" id="Layer_1" xmlns="http://www.w3.org/2000/svg" xmlns:xlink="http://www.w3.org/1999/xlink" x="0px" y="0px"
	 width="130px" height="130px" viewBox="0 0 130 130" style="enable-background:new 0 0 130 130;" xml:space="preserve">
<g>
	<defs>
		<rect id="SVGID_3_" x="-1758" y="-904" width="1280" height="2075"/>
	</defs>
	<clipPath id="SVGID_4_">
		<use xlink:href="#SVGID_3_"  style="overflow:visible;"/>
	</clipPath>
	<g transform="matrix(1 0 0 1 0 -6.103516e-005)" style="clip-path:url(#SVGID_4_);">
		
			<image style="overflow:visible;" width="4884" height="3256" xlink:href="D:\Work\Stratadigm\IKMsqwyaR6qN0kq48STw_annapurna.jpg"  transform="matrix(0.6511 0 0 0.6511 -2707.6589 -904.0007)">
		</image>
	</g>
</g>
<g>
	<path style="fill:#ECB144;" d="M83.907,106.912c-4.272-0.011-8.545-0.03-12.817-0.033c-7.953-0.005-15.907,0.016-23.861-0.023
		c-0.928-0.005-1.25,0.184-1.183,1.162c0.099,1.428,0.006,2.869,0.052,4.302c0.021,0.638-0.219,0.78-0.812,0.775
		c-3.338-0.029-6.675-0.033-10.013-0.015c-0.572,0.003-0.806-0.094-0.805-0.753c0.022-12.539,0.019-25.078,0.017-37.617
		c-0.002-13.381-0.009-26.763-0.01-40.144c-0.001-5.49,0.02-10.979-0.002-16.469c-0.003-0.673,0.133-0.91,0.863-0.901
		c3.275,0.04,6.551,0.039,9.826-0.007c0.763-0.011,0.945,0.235,0.924,0.949c-0.045,1.464,0.036,2.933-0.017,4.397
		c-0.026,0.705,0.178,0.89,0.879,0.886c5.396-0.029,10.792-0.016,16.188-0.017c6.768-0.001,13.537-0.004,20.305-0.008
		c0.155,0,0.311-0.018,0.466-0.027c0,0.06,0,0.12,0.001,0.181c-0.494,0.469-1.117,0.316-1.691,0.317
		c-11.279,0.01-22.558,0.007-33.837,0.007c-1.817,0-1.779,0.006-2.06,1.786c-0.111,0.699,0.004,1.361,0.044,2.039
		c0.057,5.102,0.036,10.205,0.015,15.305c0.047,1.135-0.318,2.256-0.056,3.415c0.099,0.436,0.506,0.811,0.313,1.314
		c-0.273,0.489-0.24,1.025-0.24,1.553c-0.003,3.927-0.004,7.854,0,11.782c0.001,1.483,0.04,1.524,1.512,1.524
		c11.408,0.003,22.815-0.001,34.222,0.007c0.581,0,1.192-0.124,1.722,0.256c0.097,0.517-0.338,0.43-0.594,0.482
		c-0.427,0.086-0.869,0.044-1.304,0.044c-11.21,0.001-22.42,0.001-33.629,0.001c-0.311,0-0.623-0.006-0.934,0.003
		c-1.07,0.032-1.206,0.183-1.076,1.21c0.039,0.31,0.102,0.623,0.066,0.93c-0.095,0.819,0.203,1.375,1.003,1.634
		c0.055,0.131,0.031,0.285-0.093,0.314c-0.948,0.227-0.907,0.953-0.905,1.692c0.008,3.926,0.005,7.852,0.003,11.779
		c0,0.529,0.015,1.06-0.05,1.586c-0.086,1.298,0.194,2.614-0.201,3.899c-0.085,0.277,0.112,0.541,0.173,0.814
		c0.092,0.4,0.086,0.806,0.085,1.21c-0.014,4.702,0.036,9.405-0.023,14.106c0.034,0.716,0.022,1.427-0.087,2.141
		c-0.2,1.317,0.136,1.708,1.464,1.708c10.119,0.005,20.238,0.002,30.357,0.003c1.526,0,3.051-0.009,4.577,0.006
		c0.428,0.004,0.884-0.051,1.224,0.314C83.906,106.791,83.906,106.852,83.907,106.912z"/>
	<path style="fill:#ECB044;" d="M86.912,17.24c2.651-0.01,5.301-0.001,7.952-0.044c0.669-0.011,0.668,0.345,0.668,0.818
		c-0.007,5.177-0.005,10.354-0.007,15.531c-0.003,8.389-0.007,16.778-0.009,25.167c-0.002,9.137,0,18.275-0.003,27.412
		c-0.001,3.43-0.014,6.86-0.021,10.29c-0.159,0.42-0.466,0.726-0.776,1.034c-2.001,1.997-4.002,3.993-5.996,5.997
		c-0.731,0.735-1.742,1.138-2.33,2.06c-0.168,0.264-0.622,0.64-0.971,0.042c-0.147-0.934-0.149-1.868-0.001-2.801
		c0.632-0.63,0.651-0.624,1.069,0.374c0.176-0.285,0.031-0.484-0.088-0.665c-0.211-0.325-0.17-0.635-0.027-0.973
		c0.405-0.958,0.476-1.921-0.026-2.872c-0.145-0.275-0.111-0.539,0.005-0.807c0.426-0.99,0.498-1.978-0.013-2.963
		c-0.143-0.276-0.09-0.54,0.023-0.808c0.42-0.99,0.496-1.978-0.035-2.957c-0.191-0.352,0.004-0.654,0.108-0.978
		c0.204-0.634-0.089-1.215-0.736-1.207c-0.792,0.01-1.041-0.324-1.051-1.025c-0.005-0.312-0.426-0.589-0.083-0.937
		c0.612-0.175,0.776-0.599,0.778-1.204c0.002-0.836-0.139-1.684,0.127-2.508c1.252-0.753,1.574-1.785,0.939-3.191
		c-0.171-0.379-0.175-0.69-0.021-1.06c0.385-0.925,0.452-1.864-0.027-2.781c-0.162-0.311-0.126-0.589-0.001-0.89
		c0.41-0.989,0.494-1.974-0.04-2.953c-0.19-0.348-0.002-0.656,0.121-0.975c0.438-1.14,0.319-1.41-0.79-1.806
		c-0.121-0.043-0.298-0.091-0.29-0.195c0.062-0.881-0.652-1.271-1.114-1.822c-0.058-0.069-0.034-0.179-0.014-0.271
		c1.149-0.332,1.163-1.223,1.104-2.178c-0.028-0.456-0.065-0.928,0.14-1.367c0.018-0.024,0.037-0.049,0.057-0.073
		c0.283-0.339,0.901,0.2,1.047-0.341c0.161-0.599,0.219-1.267-0.083-1.828c-0.288-0.537-0.2-0.965-0.013-1.496
		c0.282-0.802,0.336-1.654-0.08-2.445c-0.197-0.375-0.162-0.694-0.011-1.063c0.382-0.93,0.442-1.87-0.044-2.789
		c-0.165-0.312-0.122-0.607,0.028-0.892c0.274-0.518,0.398-1.101,0.257-1.631c-0.238-0.893-0.836-1.635-1.281-2.44
		c-0.127-0.229-0.488-0.239-0.776-0.243c-0.278-0.004-0.569,0.019-0.766-0.246c-0.114-0.26-0.105-0.509,0.066-0.743
		c1.442-0.546,1.438-0.546,1.449-2.225c0.003-0.456-0.052-0.92,0.131-1.359c0.082-0.149,0.21-0.216,0.38-0.209
		c0.809,0.03,1.037-0.19,0.696-0.851c-0.31-0.601-0.218-1.077-0.018-1.67c0.259-0.767,0.294-1.594-0.097-2.356
		c-0.171-0.332-0.204-0.632-0.057-0.975c0.423-0.987,0.489-1.975-0.033-2.955c-0.128-0.24-0.099-0.482,0.005-0.718
		c0.446-1.015,0.24-1.979,0.064-3.05c-0.195-1.19-0.421-1.915-1.713-2.16c-0.303-0.057-0.793-0.759-0.485-1.397
		c1.121-0.329,1.104-0.329,1.132-1.521c0.02-0.802-0.129-1.617,0.14-2.406c1.333-1.227,1.511-1.972,0.872-3.674
		c-0.055-0.146-0.161-0.307-0.093-0.442C86.616,18.805,86.525,17.954,86.912,17.24z"/>
	<path style="fill:#ECB044;" d="M85.6,105.77c0.592-0.298,1.153-0.623,1.324-1.342c0.026-0.107,0.117-0.277,0.19-0.284
		c1.218-0.109,1.701-1.188,2.442-1.89c2.014-1.909,3.961-3.888,5.935-5.84c-0.003,0.254-0.006,0.507-0.009,0.761
		c-0.019,0.43-0.246,0.721-0.554,1.018c-1.948,1.881-3.844,3.814-5.756,5.731c-0.341,0.342-0.814,0.67-0.233,1.224
		c0.538,0.513,0.931,0.258,1.347-0.161c1.339-1.346,2.674-2.696,4.032-4.022c0.309-0.302,0.595-0.79,1.17-0.439
		c-0.002,0.131-0.004,0.263-0.006,0.394c-0.02,0.429-0.241,0.722-0.552,1.016c-1.288,1.214-2.513,2.494-3.772,3.738
		c-0.354,0.349-0.671,0.668-0.162,1.156c0.48,0.459,0.865,0.331,1.277-0.085c0.721-0.729,1.435-1.464,2.18-2.167
		c0.28-0.264,0.563-0.638,1.035-0.307c-0.002,0.131-0.004,0.263-0.006,0.394c-0.02,0.428-0.229,0.732-0.552,1.016
		c-0.652,0.573-1.24,1.215-1.855,1.828c-0.286,0.286-0.502,0.586-0.113,0.946c0.337,0.313,0.696,0.549,1.143,0.174
		c0.19-0.159,0.354-0.349,0.553-0.498c0.252-0.189,0.511-0.38,0.829-0.115c0.009,1.46,0,2.921,0.036,4.381
		c0.013,0.525-0.158,0.697-0.688,0.691c-2.704-0.031-5.409-0.029-8.113-0.039c-0.29-0.484,0.032-0.89,0.207-1.287
		c0.315-0.717,0.321-1.353-0.258-1.938c-0.225-0.227-0.349-0.5-0.277-0.832c0.23-0.639,0.422-1.281,0.153-2.012
		c-0.737,0.217-1.231,1.426-2.176,0.514c-0.113-0.208-0.232-0.415-0.07-0.652C84.917,106.708,85.395,106.404,85.6,105.77z"/>
	<path style="fill:#ECB044;" d="M95.488,100.526c-0.436-0.053-0.678,0.247-0.943,0.512c-1.41,1.413-2.839,2.808-4.226,4.243
		c-0.551,0.57-0.951,0.592-1.561,0.04c-0.685-0.62-0.328-0.985,0.126-1.433c2.063-2.038,4.112-4.091,6.191-6.113
		c0.193-0.187,0.21-0.445,0.406-0.6C95.484,98.292,95.486,99.409,95.488,100.526z"/>
	<path style="fill:#ECC64A;" d="M86.912,17.24c-0.021,0.732,0.133,1.492-0.414,2.129c-0.163,0.189-0.07,0.37,0.08,0.575
		c0.583,0.798,0.435,2.646-0.224,3.341c-0.211,0.223-0.453,0.313-0.749,0.288c-0.575,0.099-1.149,0.188-1.684-0.154l-0.014-0.051
		c0.002-1.828,0.02-3.657-0.004-5.484c-0.007-0.526,0.162-0.715,0.688-0.685C85.363,17.242,86.138,17.229,86.912,17.24z"/>
	<path style="fill:#ECC54A;" d="M86.537,108.953c0.034,0.179,0.003,0.442,0.111,0.523c1.041,0.79,0.877,1.705,0.353,2.696
		c-0.141,0.267-0.188,0.583-0.279,0.876c-0.894,0.031-2.009,0.364-2.617-0.12c-0.607-0.483-0.146-1.63-0.18-2.483
		c-0.046-1.176-0.016-2.355-0.019-3.533l0.014-0.047c0.13-0.086,0.251-0.069,0.364,0.033c0.064,0.188,0.129,0.375,0.193,0.563
		c0.121,0.379,0.439,0.274,0.703,0.276C86.118,107.746,86.393,107.989,86.537,108.953z"/>
	<path style="fill:#ECB044;" d="M95.488,104.27c-0.434-0.053-0.676,0.244-0.94,0.509c-0.767,0.771-1.554,1.522-2.301,2.312
		c-0.648,0.686-1.044,0.215-1.544-0.216c-0.586-0.505-0.275-0.803,0.118-1.184c1.424-1.386,2.821-2.8,4.258-4.173
		c0.194-0.186,0.207-0.444,0.404-0.598C95.484,102.037,95.486,103.154,95.488,104.27z"/>
	<path style="fill:#ECB044;" d="M95.488,108.015c-0.599-0.053-0.869,0.43-1.192,0.777c-0.709,0.764-1.169,0.105-1.634-0.277
		c-0.549-0.451-0.118-0.784,0.211-1.129c0.866-0.911,1.85-1.709,2.61-2.722C95.484,105.781,95.486,106.898,95.488,108.015z"/>
	<path style="fill:#D78C39;" d="M46.097,82.728c5.177,0.008,10.354,0.023,15.531,0.024c7.267,0.001,14.533-0.009,21.8-0.015
		c0.156,0,0.311-0.013,0.467-0.021c0.378-0.284,0.81-0.293,1.242-0.204c0.301,0.062,0.638,0.151,0.469,0.603
		c-0.003,0.921-0.066,1.847,0.009,2.762c0.075,0.903-0.174,1.352-1.141,1.181c-0.19,0.171-0.384,0.13-0.579,0.009
		c-10.23-0.003-20.459-0.006-30.689-0.01c-2.37-0.001-4.741-0.004-7.111-0.005c-0.235-0.123-0.458-0.313-0.333-0.577
		c0.555-1.179,0.313-2.394,0.228-3.606C45.987,82.825,46.06,82.775,46.097,82.728z"/>
	<path style="fill:#D78C39;" d="M83.903,47.549c-7.037-0.005-14.073-0.007-21.11-0.015c-5.386-0.007-10.771-0.023-16.157-0.035
		c-0.423-0.156-0.473-0.478-0.578-0.897c-0.285-1.145,0.068-2.251,0.036-3.372c12.6-0.004,25.2-0.008,37.799-0.013
		c0.396-0.299,0.845-0.307,1.296-0.203c0.408,0.095,0.662,0.311,0.425,0.777c-0.004,0.894-0.062,1.792,0.005,2.681
		c0.063,0.84-0.2,1.215-1.069,1.076C84.339,47.516,84.119,47.548,83.903,47.549z"/>
	<path style="fill:#D78C39;" d="M83.915,67.403c-2.326-0.295-4.66-0.07-6.991-0.118c-1.647-0.034-3.295-0.009-4.942-0.007
		c-3.392,0.004-6.784,0.01-10.176,0.017c-1.524,0.003-3.048,0.017-4.572,0.012c-2.147-0.006-4.295-0.022-6.442-0.037
		c-1.119-0.008-2.238-0.024-3.358-0.037c-1.345-0.084-1.33-0.084-1.352-1.477c-0.008-0.514,0.077-1.02-0.209-1.54
		c-0.304-0.553,0.236-1.127,0.991-1.129c2.554-0.006,5.108-0.002,7.662-0.002c9.469,0.002,18.937,0.005,28.406,0.001
		c0.33,0,0.69,0.113,0.983-0.156l0.011-0.03c0.112-0.107,0.244-0.171,0.4-0.185c0.405,0.021,0.797,0.1,1.174,0.256
		c0.251,0.188,0.284,0.412,0.11,0.67c-0.003,0.808-0.036,1.618,0,2.424c0.033,0.739-0.03,1.319-1.008,1.161
		c-0.092-0.015-0.207,0.108-0.312,0.167C84.168,67.506,84.043,67.499,83.915,67.403z"/>
	<path style="fill:#D78C39;" d="M83.886,27.719c-10.383-0.003-20.766-0.005-31.149-0.008c-2.214-0.001-4.428-0.002-6.641-0.004
		c-0.457-1.074,0.127-2.153-0.012-3.224c-0.102-0.785,0.262-0.924,0.96-0.921c5.795,0.022,11.589,0.01,17.384,0.01
		c6.231,0,12.462,0,18.692-0.002c0.273,0,0.566,0.072,0.8-0.151c0.564,0.02,1.15-0.199,1.684,0.154
		c-0.002,1.015-0.054,2.034,0.01,3.045c0.052,0.822-0.17,1.232-1.054,1.08c-0.149-0.026-0.307,0.002-0.461,0.005
		C84.034,27.787,83.963,27.792,83.886,27.719z"/>
	<path style="fill:#D78C39;" d="M46.097,102.571c12.595-0.002,25.19-0.005,37.784-0.007c0.578-0.315,1.152-0.397,1.718,0.028
		c0,1.059,0,2.119,0.001,3.178c0.224,1.148-0.474,1.222-1.315,1.128c-0.121-0.011-0.243-0.022-0.364-0.033
		c-0.36-0.285-0.782-0.15-1.173-0.15c-11.841-0.008-23.682-0.006-35.522-0.007c-0.88,0-1.686-0.86-1.38-1.653
		C46.168,104.217,46.019,103.396,46.097,102.571z"/>
	<path style="fill:#ECC64A;" d="M83.886,27.719c0.071-0.006,0.142-0.011,0.214-0.017c0.152,0.335,0.561,0.509,0.572,0.938
		c0.007,0.277,0.172,0.32,0.443,0.321c1.132,0.004,1.628,0.618,1.364,1.653c-0.039,0.153-0.115,0.291-0.005,0.438
		c0.78,1.048,0.569,2.117,0.068,3.192c-0.077,0.165-0.218,0.337-0.084,0.52c0.795,1.081,0.599,2.175,0.057,3.276
		c-0.084,0.171-0.168,0.335-0.032,0.521c0.77,1.052,0.563,2.122,0.045,3.19c-0.118,0.244-0.214,0.486,0.068,0.653
		c0.378,0.225,0.319,0.576,0.309,0.911c-0.01,0.33,0.129,0.745-0.247,0.934c-0.366,0.184-0.498-0.288-0.773-0.392
		c-0.087-0.032-0.18-0.045-0.271-0.067c0.008-0.359-0.107-0.585-0.526-0.566c-0.397,0.018-0.796-0.004-1.194-0.009
		C83.891,38.052,83.888,32.886,83.886,27.719z"/>
	<path style="fill:#ECC64A;" d="M85.6,102.592c-0.573-0.009-1.146-0.019-1.718-0.028c0.005-5.166,0.009-10.331,0.014-15.497
		c0.193-0.003,0.386-0.006,0.579-0.009c0.305,0.458,0.742,0.876,0.382,1.589c0.591-0.027,1.165-0.294,1.583,0.264
		c0.33,0.441,0.667,0.831,0.18,1.386c-0.166,0.189-0.349,0.448-0.085,0.746c0.741,0.839,0.416,1.826,0.22,2.713
		c-0.111,0.5-0.328,0.754,0.019,1.353c0.381,0.657,0.305,1.646-0.023,2.432c-0.196,0.471-0.322,0.698,0.003,1.27
		c0.394,0.694,0.336,1.696-0.024,2.515c-0.192,0.437-0.525,0.749,0.047,1.176c0.27,0.201,0.18,0.636,0.034,0.959
		c-0.066,0.147-0.224,0.251-0.383,0.153c-0.293-0.18-0.365-0.44-0.312-0.796C86.196,102.266,85.852,102.493,85.6,102.592z"/>
	<path style="fill:#ECC64A;" d="M83.915,67.403c0.125-0.004,0.249-0.008,0.374-0.011c0.22,0.17,0.42,0.377,0.662,0.504
		c0.598,0.313,0.815,0.746,0.482,1.385c1.49,0.017,1.946,0.889,1.209,2.231c-0.186,0.338-0.217,0.546,0.021,0.968
		c0.477,0.846,0.412,1.836-0.005,2.739c-0.179,0.386-0.192,0.595,0.035,1.043c0.428,0.846,0.399,1.845-0.058,2.747
		c-0.177,0.349-0.321,0.588,0.059,0.964c0.465,0.46,0.265,2.509-0.185,2.982c-0.263,0.277-0.549,0.403-0.903,0.163
		c-0.426-0.751-1.159-0.185-1.71-0.399C83.902,77.612,83.909,72.508,83.915,67.403z"/>
	<path style="fill:#ECC64A;" d="M85.609,63.64c-0.019-0.205,0.026-0.433-0.197-0.568c-0.347-0.226-0.678-0.551-1.122-0.183
		c-0.122,0.003-0.243,0.007-0.364,0.01c0.003-4.87,0.007-9.739,0.01-14.609c0.634-0.046,1.281-0.228,1.812,0.351
		c0.199,0.216,0.392,0.424,0.391,0.71c-0.001,0.378-0.309,0.93,0.515,0.677c0.049-0.015,0.219,0.151,0.223,0.239
		c0.055,1.048,0.179,2.111-0.469,3.051c0.806,0.863,0.623,1.947,0.385,2.877c-0.157,0.613-0.187,0.972,0.019,1.604
		c0.252,0.77,0.366,1.778-0.236,2.599c-0.119,0.162-0.315,0.437-0.103,0.587c0.651,0.463,0.414,1.121,0.425,1.71
		C86.927,64.083,86.908,64.083,85.609,63.64z"/>
	<path style="fill:#ECB044;" d="M86.537,108.953c-0.355-0.782-0.827-1.333-1.819-1.064c-0.434,0.118-0.34-0.182-0.24-0.428
		c0.693,0.448,1.078-0.049,1.504-0.472c0.206-0.204,0.391-0.576,0.76-0.379c0.297,0.159,0.162,0.509,0.159,0.772
		C86.896,107.928,87.046,108.52,86.537,108.953z"/>
	<path style="fill:#ECB044;" d="M84.291,62.89c0.531-0.902,0.839-0.436,1.122,0.183C85.016,63.151,84.663,62.962,84.291,62.89z"/>
</g>
</svg>
