<?xml version="1.0" encoding="iso-8859-1"?>
<!-- Generator: Adobe Illustrator 17.0.0, SVG Export Plug-In . SVG Version: 6.00 Build 0)  -->
<!DOCTYPE svg PUBLIC "-//W3C//DTD SVG 1.1//EN" "http://www.w3.org/Graphics/SVG/1.1/DTD/svg11.dtd">
<svg version="1.1" id="Layer_1" xmlns="http://www.w3.org/2000/svg" xmlns:xlink="http://www.w3.org/1999/xlink" x="0px" y="0px"
	 width="130px" height="130px" viewBox="0 0 130 130" style="enable-background:new 0 0 130 130;" xml:space="preserve">
<g>
	<defs>
		<rect id="SVGID_3_" x="-2141" y="-580" width="1280" height="2075"/>
	</defs>
	<clipPath id="SVGID_4_">
		<use xlink:href="#SVGID_3_"  style="overflow:visible;"/>
	</clipPath>
	<g transform="matrix(1 0 0 1 2.441406e-004 0)" style="clip-path:url(#SVGID_4_);">
		
			<image style="overflow:visible;" width="4884" height="3256" xlink:href="D:\Work\Stratadigm\IKMsqwyaR6qN0kq48STw_annapurna.jpg"  transform="matrix(0.6511 0 0 0.6511 -3090.6589 -580.0007)">
		</image>
	</g>
</g>
<path style="fill:#27AAE1;" d="M90.151,113.264c-3.577,0.27,0.916-0.896,1.48-1.157c1.355-0.627,2.845-2.338,1.7-3.853
	c-1.025-1.355-3.049-1.144-4.553-1.081c-0.696,0.029-1.391,0.062-2.087,0.076c0.415-0.194,0.88-0.315,1.276-0.459
	c2.299-0.835,3.606-2.39,3.025-4.883c-1.354-5.815-13.047-0.952-17.432,0.081c-3.53-0.748-6.416-2.468-8.111-5.835
	c-1.006-1.998-1.246-4.087-0.746-6.296c0.589-2.596,1.426-5.061,3.158-7.138c0.411-0.493,0.793-1.021,1.607-0.86
	c1.377,0.271,2.765,0.498,4.155,0.693c2.521,0.354,5.036,0.741,7.604,0.597c1.413-0.079,2.247-0.818,2.829-1.988
	c0.805-1.62,1.054-3.374,1.142-5.146c0.207-4.178-0.202-8.314-0.948-12.423c-0.51-2.809-1.996-4.928-4.413-6.417
	c-1.133-0.698-2.333-1.266-3.535-1.829c-1.015-0.475-2.021-0.963-2.933-1.624c-1.536-1.112-2.237-2.634-2.173-4.508
	c0.086-2.518,0.664-4.938,1.456-7.32c0.696-2.094,1.516-4.15,1.717-6.389c0.341-3.799-1.133-7.134-5.13-8.548
	c-4.873-1.723-9.1,0.009-11.255,4.697c-1.312,2.854-1.467,5.884-1.175,8.951c0.137,1.432,0.521,2.814,1.214,4.092
	c1.219,2.248,3.153,3.017,5.583,2.233c0.2-0.064,0.397-0.258,0.658-0.075c-0.137,0.633-0.45,1.165-0.872,1.634
	c-1.384,1.538-3.216,2.069-5.184,2.183c-1.921,0.111-3.85,0.087-5.773,0.172c-3.122,0.137-5.936,1.017-8.093,3.449
	c-2.285,2.576-4.409,5.274-6.16,8.245c-0.792,1.344-1.535,2.718-1.85,4.28c-0.218,1.077,0.051,1.92,0.925,2.624
	c1.617,1.303,3.375,2.341,5.33,3.046c3.067,1.105,6.263,1.489,9.491,1.696c1.517,0.097,3.033,0.212,4.549,0.318
	c-0.016,0.179-0.08,0.219-0.148,0.253c-3.244,1.606-6.645,2.412-10.275,1.917c-0.64-0.087-0.857,0.103-0.863,0.713
	c-0.009,0.886,0.042,1.766,0.106,2.65c0.507,6.928,3.512,12.671,8.396,17.47c3.121,3.067,6.792,5.318,10.943,6.753
	c3.977,1.374,8.037,1.894,12.218,1.215c3.298-0.536,6.392-1.635,9.362-3.071c0.404,0.035,0.807,0.087,1.204,0.174
	c1.619,0.356-1.886,1.877-1.78,1.837c-0.537,0.204-0.988,0.463-1.446,0.806c-3.297,2.465-0.885,5.041,2.295,5.047
	c0.287,0,0.574-0.015,0.861-0.027c-1.345,0.543-2.366,1.396-2.48,3.248c-0.117,1.896,2.488,2.567,4.226,2.733
	c-0.021,0.018-0.041,0.029-0.061,0.047c-0.82,0.721-0.581,1.927-0.386,2.828c0.411,1.89,3.302,1.088,2.893-0.798
	c-0.03-0.138,1.318-1.405,1.473-1.687c0.389-0.707,0.538-1.977-0.112-2.593C92.157,113.166,91.374,113.172,90.151,113.264z"/>
</svg>
