<?xml version="1.0" encoding="iso-8859-1"?>
<!-- Generator: Adobe Illustrator 17.0.0, SVG Export Plug-In . SVG Version: 6.00 Build 0)  -->
<!DOCTYPE svg PUBLIC "-//W3C//DTD SVG 1.1//EN" "http://www.w3.org/Graphics/SVG/1.1/DTD/svg11.dtd">
<svg version="1.1" id="Layer_1" xmlns="http://www.w3.org/2000/svg" xmlns:xlink="http://www.w3.org/1999/xlink" x="0px" y="0px"
	 width="130px" height="130px" viewBox="0 0 130 130" style="enable-background:new 0 0 130 130;" xml:space="preserve">
<g transform="translate(0 -1028.4)">
	<g>
		<path style="fill:#AE6586;" d="M31.667,1072.067c-3.682,0-6.667,3-6.667,6.667v46.667c0,3.667,2.985,6.667,6.667,6.667h66.667
			c3.683,0,6.667-3,6.667-6.667v-46.667c0-3.667-2.983-6.667-6.667-6.667H31.667z"/>
		<path style="fill:#AE6586;" d="M35,1058.733c-3.682,0-6.667,3-6.667,6.667v46.667c0,3.667,2.985,6.667,6.667,6.667h36.667h16.667
			H95c3.683,0,6.667-3,6.667-6.667v-30v-10c0-3.667-2.983-6.667-6.667-6.667h-6.667H71.667h-3.333l-10-6.667H35z"/>
		<path style="fill:#BDC3C7;" d="M101.667,1102.067V1075.4c0-3.667-2.983-6.667-6.667-6.667H58.333H41.667H35
			c-3.682,0-6.667,3-6.667,6.667v26.667H101.667z"/>
		<path style="fill:#FF7BAC;" d="M31.667,1072.067c-3.682,0-6.667,3-6.667,6.667v20v3.333v20c0,3.667,2.985,6.667,6.667,6.667
			h66.667c3.683,0,6.667-3,6.667-6.667v-20v-3.333v-20c0-3.667-2.983-6.667-6.667-6.667H31.667z"/>
	</g>
	<path style="fill:#FFC4DA;" d="M50.833,1078.733c-0.694,0-1.285,0-1.771,0.667c-0.486,0.333-0.729,1-0.729,1.667v31v7.333
		c0,0.667,0.243,1.333,0.729,1.667c0.486,0.667,1.076,1,1.771,1H65h17.5c0.693,0,1.283-0.333,1.77-1c0.487-0.333,0.73-1,0.73-1.667
		v-7.333v-19.333c0-0.667-0.173-1.333-0.52-2.333c-0.347-0.667-0.763-1.333-1.25-2l-8.127-8c-0.487-0.667-1.147-1-1.977-1.333
		c-0.837-0.333-1.6-0.333-2.293-0.333H65H50.833z M51.667,1082.067H65h3.333v10.667c0,0.667,0.243,1.333,0.73,1.667
		c0.487,0.667,1.077,1,1.77,1h10.833v16.667v6.667H65H51.667v-6.667V1082.067z M71.667,1082.067c0.503,0.333,0.833,0.333,1.04,0.667
		l8.127,8c0.207,0.333,0.45,0.667,0.627,1.333h-9.793V1082.067z M55.833,1098.733h-0.625c-0.156,0.333-0.208,0.333-0.208,0.667
		v1.667c0,0.333,0.052,0.667,0.208,0.667c0.156,0,0.382,0.333,0.625,0.333H65h12.5c0.243,0,0.47-0.333,0.627-0.333
		c0.153,0,0.207-0.333,0.207-0.667v-1.667c0-0.333-0.053-0.333-0.207-0.667H77.5H65H55.833z M55.833,1105.4h-0.625
		c-0.156,0.333-0.208,0.333-0.208,0.667v1.667c0,0.333,0.052,0.667,0.208,0.667c0.156,0,0.382,0.333,0.625,0.333H65h12.5
		c0.243,0,0.47-0.333,0.627-0.333c0.153,0,0.207-0.333,0.207-0.667v-1.667c0-0.333-0.053-0.333-0.207-0.667H77.5H65H55.833z
		 M55.833,1112.067h-0.625C55.052,1112.4,55,1112.4,55,1112.733v1.667c0,0.333,0.052,0.667,0.208,0.667
		c0.156,0,0.382,0.333,0.625,0.333H65h12.5c0.243,0,0.47-0.333,0.627-0.333c0.153,0,0.207-0.333,0.207-0.667v-1.667
		c0-0.333-0.053-0.333-0.207-0.667H77.5H65H55.833z"/>
</g>
</svg>
