<?xml version="1.0" encoding="iso-8859-1"?>
<!-- Generator: Adobe Illustrator 17.0.0, SVG Export Plug-In . SVG Version: 6.00 Build 0)  -->
<!DOCTYPE svg PUBLIC "-//W3C//DTD SVG 1.1//EN" "http://www.w3.org/Graphics/SVG/1.1/DTD/svg11.dtd">
<svg version="1.1" id="Layer_1" xmlns="http://www.w3.org/2000/svg" xmlns:xlink="http://www.w3.org/1999/xlink" x="0px" y="0px"
	 width="130px" height="130px" viewBox="0 0 130 130" style="enable-background:new 0 0 130 130;" xml:space="preserve">
<g style="opacity:0.8;">
	<path style="fill:#CCCCCC;" d="M104.113,65c0,10.798-3.82,20.015-11.459,27.654c-7.64,7.639-16.859,11.458-27.654,11.458
		c-10.797,0-20.015-3.819-27.654-11.458C29.707,85.015,25.887,75.798,25.887,65c0-10.795,3.819-20.015,11.458-27.653
		c7.64-7.64,16.857-11.459,27.654-11.459c10.795,0,20.015,3.819,27.654,11.459C100.292,44.985,104.113,54.205,104.113,65z
		 M99.223,65c0-9.473-3.337-17.544-10.007-24.216C82.543,34.114,74.472,30.776,65,30.776s-17.546,3.338-24.216,10.008
		C34.111,47.456,30.777,55.527,30.777,65s3.334,17.57,10.007,24.293C47.454,96.016,55.527,99.376,65,99.376
		s17.544-3.36,24.217-10.083C95.886,82.57,99.223,74.473,99.223,65z M84.021,50.715c1.17,1.172,1.196,2.318,0.076,3.438
		L59.652,78.598c-0.102,0.205-0.152,0.358-0.152,0.459c-1.223,1.122-2.395,1.122-3.514,0l-12.07-12.223
		c-1.223-1.12-1.248-2.239-0.076-3.361c1.17-1.12,2.315-1.12,3.438,0l10.389,10.236l22.918-23.07
		C81.703,49.519,82.849,49.545,84.021,50.715z"/>
</g>
</svg>
