<?xml version="1.0" encoding="iso-8859-1"?>
<!-- Generator: Adobe Illustrator 17.0.0, SVG Export Plug-In . SVG Version: 6.00 Build 0)  -->
<!DOCTYPE svg PUBLIC "-//W3C//DTD SVG 1.1//EN" "http://www.w3.org/Graphics/SVG/1.1/DTD/svg11.dtd">
<svg version="1.1" id="Layer_1" xmlns="http://www.w3.org/2000/svg" xmlns:xlink="http://www.w3.org/1999/xlink" x="0px" y="0px"
	 width="130px" height="130px" viewBox="0 0 130 130" style="enable-background:new 0 0 130 130;" xml:space="preserve">
<g style="opacity:0.8;">
	<path style="fill:#CCCCCC;" d="M104.203,32.899c0.152,2.344-0.053,5.806-0.611,10.389c-0.561,4.584-1.451,8.506-2.674,11.765
		c-1.732,4.687-4.482,8.709-8.25,12.07c-1.02,0.916-2.471,1.936-4.354,3.056c-1.887,1.121-4.279,2.42-7.182,3.896
		c-2.902,1.478-4.813,2.471-5.729,2.979c-3.262,1.833-5.043,2.853-5.348,3.056V92.79c0,0.714-0.307,1.325-0.917,1.834l-9.015,9.014
		c-0.511,0.406-1.069,0.611-1.68,0.611c-0.206,0-0.459-0.053-0.765-0.153c-0.816-0.306-1.325-0.866-1.528-1.681l-3.055-12.681
		l-5.5-6.111c-2.854-3.156-4.637-5.142-5.348-5.958l-14.515-3.361c-0.917-0.203-1.528-0.738-1.833-1.604
		c-0.307-0.864-0.153-1.654,0.458-2.368l9.015-9.778c0.508-0.509,1.119-0.764,1.833-0.764h13.598
		c0.61-1.017,1.577-2.903,2.903-5.653c4.175-8.25,7.127-13.393,8.861-15.431c3.563-4.176,7.689-7.181,12.375-9.015
		c3.973-1.425,8.273-2.468,12.91-3.132c4.634-0.661,7.969-0.917,10.008-0.764c2.035,0.152,3.361,0.179,3.972,0.076
		c1.425,0.103,2.188,0.866,2.292,2.292C104.023,28.979,104.05,30.557,104.203,32.899z M44.236,89.276l3.666,3.208
		c-0.408,0.611-0.969,1.733-1.68,3.361c-0.918,1.937-1.86,3.411-2.827,4.431c-0.97,1.018-2.674,1.857-5.118,2.521
		c-2.445,0.661-5.756,0.992-9.932,0.992h-2.443v-2.444c0-5.703,0.559-9.675,1.68-11.917c1.12-2.239,3.156-4.072,6.111-5.5
		c1.834-0.917,3.156-1.681,3.973-2.292l2.902,3.82c-1.222,0.916-2.802,1.833-4.736,2.75c-1.832,0.916-3.081,1.985-3.742,3.208
		c-0.664,1.223-1.096,3.72-1.299,7.486c2.75,0,4.889-0.306,6.417-0.917c1.528-0.61,2.521-1.195,2.979-1.757
		c0.458-0.559,1.043-1.501,1.756-2.826C42.757,91.568,43.521,90.192,44.236,89.276z M99.238,30.607
		c-8.251,0-15.737,1.223-22.459,3.667c-3.973,1.527-7.486,4.075-10.543,7.639c-1.428,1.733-4.125,6.57-8.098,14.515
		c-1.833,3.566-3.107,5.908-3.819,7.028c-0.511,0.816-1.222,1.222-2.139,1.222H38.277l-5.5,5.806l11.306,2.598
		c0.509,0.103,0.917,0.358,1.222,0.764c0.51,0.511,4.481,4.89,11.918,13.14c0.203,0.306,0.355,0.664,0.458,1.069l2.292,9.32
		l5.194-5.653V78.886c0-0.813,0.253-1.425,0.765-1.833c0.61-0.509,2.953-1.934,7.027-4.278c0.917-0.509,2.725-1.451,5.424-2.826
		c2.697-1.375,4.989-2.598,6.875-3.667c1.884-1.069,3.232-2.01,4.049-2.826c3.259-2.851,5.601-6.212,7.028-10.084
		C98.473,47.566,99.44,39.979,99.238,30.607z M89.612,50.086c0,2.7-0.97,5.019-2.903,6.952c-1.936,1.936-4.254,2.902-6.951,2.902
		c-2.699,0-5.018-0.967-6.951-2.902c-1.937-1.934-2.903-4.252-2.903-6.952c0-2.697,0.967-5.016,2.903-6.951
		c1.934-1.934,4.252-2.903,6.951-2.903c2.697,0,5.016,0.97,6.951,2.903C88.642,45.071,89.612,47.389,89.612,50.086z M84.722,50.086
		c0-1.375-0.484-2.545-1.451-3.514c-0.969-0.967-2.139-1.451-3.514-1.451s-2.547,0.484-3.514,1.451
		c-0.969,0.969-1.451,2.139-1.451,3.514s0.482,2.548,1.451,3.515c0.967,0.969,2.139,1.451,3.514,1.451s2.545-0.482,3.514-1.451
		C84.238,52.634,84.722,51.461,84.722,50.086z"/>
</g>
</svg>
