<?xml version="1.0" encoding="iso-8859-1"?>
<!-- Generator: Adobe Illustrator 17.0.0, SVG Export Plug-In . SVG Version: 6.00 Build 0)  -->
<!DOCTYPE svg PUBLIC "-//W3C//DTD SVG 1.1//EN" "http://www.w3.org/Graphics/SVG/1.1/DTD/svg11.dtd">
<svg version="1.1" id="Layer_1" xmlns="http://www.w3.org/2000/svg" xmlns:xlink="http://www.w3.org/1999/xlink" x="0px" y="0px"
	 width="130px" height="130px" viewBox="0 0 130 130" style="enable-background:new 0 0 130 130;" xml:space="preserve">
<path style="fill:#CCCCCC;" d="M104.079,95.731c0-2.563,0.008-5.125,0.008-7.689c0-0.098,0-0.197,0-0.297
	c0-0.709-0.114-1.314-0.537-1.755c-0.209-0.215-0.47-0.364-0.762-0.451c-0.293-0.089-0.611-0.124-0.969-0.126
	c-0.751-0.004-1.5,0.066-2.252,0.066c-1.056,0-2.111,0.093-3.168,0.093h-0.031c-0.002,0-0.003,0-0.005,0
	c-0.102,0-0.171-0.082-0.204-0.091l-0.019-0.042l-0.019-0.063c-0.013-0.042-0.028-0.123-0.036-0.224
	c-0.243-2.779-1.006-5.452-2.474-7.858c-4.15-6.825-10.492-10.124-18.297-10.503c-1.174-0.059-2.346-0.171-3.517-0.171
	c-1.563,0-3.122-0.048-4.673-0.048h-0.022c-0.001,0-0.003,0-0.004,0c-0.129,0-0.217,0.081-0.26,0.068l-0.029,0.037l0.138-0.038
	c-0.011-0.052,0.138-0.113,0.138-0.227V66.4c0-4.105,0.013-8.21,0.013-12.315c0-3.308-0.013-6.616-0.013-9.924V44.13v-0.001
	c0-0.11-0.142-0.185-0.131-0.221l-0.071-0.164c0.028-0.009,0.027-0.171,0.154-0.171c0.006,0,0.011,0,0.017,0h0.04
	c0.71,0,1.419,0.162,2.128,0.162c1.045,0,2.088,0.064,3.129,0.06c0.397-0.002,0.741,0.006,1.054-0.076
	c0.466-0.113,0.882-0.382,1.098-0.809c0.217-0.421,0.416-0.897,0.418-1.491c0.005-4.942,0.163-9.874,0.163-14.813v-0.011v-0.012
	c0-0.838-0.374-1.449-1.035-2.079l-0.288,0.071h-0.202c-5.722,0-11.443,0-17.164,0h-0.134l-0.115-0.144
	c-0.404,0.23-0.67,0.444-0.855,0.822c-0.186,0.378-0.207,0.687-0.207,1.119v0.027c0,2.244,0.007,4.489,0.007,6.734
	c0,2.338-0.007,4.677-0.007,7.015c0,0.494,0,0.988,0,1.482c0,0.665,0.101,1.249,0.51,1.67c0.412,0.418,0.976,0.57,1.64,0.575
	c0.879,0.007,1.75,0.016,2.633,0.016c0.873,0,1.742-0.147,2.618-0.174l0.092-0.141c0.002,0,0.003,0,0.005,0
	c0.143,0,0.245,0.152,0.3,0.168l0.11,0.115c0.021,0.033,0.092,0.242,0.092,0.494v0.019c0,3.271-0.018,6.542-0.018,9.813
	c0,4.056,0.018,8.111,0.018,12.166v0.004v0.01c0,0.138-0.045,0.24-0.059,0.299l-0.041,0.067l-0.008,0.001l-0.061-0.077
	c-0.045,0.011-0.126-0.077-0.232-0.077c-0.002,0-0.003,0-0.004,0h-0.049c-0.5,0-1,0.083-1.497,0.083
	c-0.712,0-1.421,0.056-2.126,0.056c-0.57,0-1.139-0.056-1.705-0.072c-0.385-0.011-0.769-0.068-1.152-0.068c-0.009,0-0.018,0-0.027,0
	c-3.766,0-7.465,0.619-10.976,2.275c-4.257,2.005-7.499,5.159-9.543,9.423c-1.046,2.178-1.639,4.511-1.874,6.898
	c-0.01,0.102-0.028,0.177-0.04,0.206l-0.008,0.022l-0.041,0.087l-0.176,0.089h-0.025c-0.598,0-1.194,0-1.789,0
	c-0.373,0-0.745,0-1.117,0c-0.754,0-1.505,0.007-2.254-0.008l-0.107,0.008c-0.013,0-0.025,0-0.038,0
	c-0.81,0-1.459,0.136-2.089,0.811l0.039,0.058v0.199c0,2.468-0.174,4.937-0.174,7.405c0,3.322,0.092,6.645,0.079,9.966h0.094v0.014
	c0,0.146-0.175,0.281-0.143,0.424c0.025,0.107-0.024,0.222,0.053,0.33c0.114,0.166,0.257,0.486,0.418,0.529
	c0.164,0.046,0.268,0.265,0.433,0.265h0.014c3.29,0,6.58-0.008,9.87-0.008c2.445,0,4.89,0.008,7.335,0.008H44.2l0.116-0.285
	c0.406-0.231,0.525-0.663,0.709-1.042c0.186-0.377,0.062-0.9,0.062-1.328v-0.02v-0.002c0-5.079,0.183-10.16,0.171-15.242
	c-0.001-0.349,0.061-0.662-0.025-0.948c-0.123-0.429-0.359-0.804-0.751-1.008c-0.391-0.208-0.818-0.273-1.345-0.277
	c-1.027-0.005-2.047-0.02-3.081-0.02c-0.695,0-1.384,0.007-2.082,0.028l-0.066,0.001c-0.12,0-0.204-0.012-0.252-0.024l-0.045-0.017
	c-0.005-0.017-0.014-0.059-0.014-0.132c0-0.061,0.006-0.142,0.021-0.238v0c0.743-5.141,3.199-9.065,7.638-11.781
	c2.701-1.646,5.67-2.376,8.86-2.584c1.358-0.088,2.722-0.102,4.095-0.102c0.584,0,1.17,0.002,1.758,0.002
	c0.898,0,1.799,0.021,2.703-0.008l0.065,0.026c0.001,0,0.003,0,0.004,0c0.114,0,0.188-0.014,0.219-0.004l0.014-0.008l0.059,0.062
	c0.011,0.054,0.057,0.132,0.057,0.243v0.019c0,2.03-0.017,4.061-0.016,6.091c0,2.716,0.016,5.432,0.016,8.147v0.005v0.006
	c0,0.121-0.046,0.203-0.058,0.242l-0.026,0.095c-0.022,0.01-0.121,0.1-0.258,0.1c-0.004,0-0.008,0-0.012,0h-0.035
	c-0.869,0-1.737-0.09-2.605-0.09c-0.941,0-1.881-0.03-2.821-0.022c-0.351,0.003-0.665,0.019-0.953,0.104
	c-0.43,0.121-0.809,0.387-1.021,0.776c-0.215,0.387-0.245,0.833-0.247,1.355c-0.002,1.503,0.035,3.002,0.035,4.504
	c0,0.584,0,1.167,0,1.75c0,2.884,0.006,5.767-0.007,8.649h0.007v0.029c0,0.423-0.005,0.842,0.129,1.248
	c0.133,0.406,0.344,1.012,0.694,1.341l0.122,0.354h0.199c5.721,0,11.443,0,17.164,0h0.137l0.118-0.287
	c0.396-0.232,0.703-0.656,0.891-1.031c0.19-0.374,0.403-0.844,0.403-1.28l0.144-0.054v-0.019v-0.003
	c0-4.996-0.157-9.993-0.163-14.993c-0.001-0.414-0.097-0.767-0.173-1.087c-0.103-0.475-0.423-0.907-0.859-1.123
	c-0.429-0.218-0.937-0.269-1.553-0.275c-0.887-0.005-1.785,0.06-2.674,0.06c-0.836,0-1.682,0.092-2.52,0.092h-0.049
	c-0.002,0-0.003,0-0.005,0c-0.118,0-0.203-0.082-0.246-0.093l-0.034-0.047l0.14-0.07c-0.011-0.047,0.136-0.145,0.136-0.256v-0.003
	v-0.01c0-2.495,0.017-4.99,0.017-7.484c0-2.255-0.017-4.51-0.017-6.765v-0.022v-0.004c0-0.116-0.143-0.198-0.132-0.241l-0.068-0.003
	c0.027-0.01,0.029-0.003,0.159-0.003c0.005,0,0.009,0,0.014,0h0.019c0.403,0,0.805-0.019,1.207-0.019
	c0.907,0,1.813-0.018,2.715-0.018c1.715,0,3.422,0.017,5.118,0.149c7.49,0.586,14.152,5.451,15.802,12.767
	c0.124,0.543,0.169,1.143,0.267,1.772l0.013,0.14l-0.003,0.112c-0.037,0.009-0.108,0.097-0.211,0.097c-0.005,0-0.01,0-0.016,0
	h-0.027c-0.692,0-1.383-0.089-2.073-0.089c-1.063,0-2.124-0.03-3.184-0.024c-0.374,0.003-0.703,0.015-1.004,0.098
	c-0.448,0.117-0.846,0.388-1.061,0.796c-0.217,0.404-0.28,0.867-0.282,1.424c-0.007,4.971-0.115,9.939-0.138,14.907l-0.116-0.002
	v0.023c0,0.839,0.348,1.879,1.009,2.509l0.261,0.358h0.202c5.721,0,11.442,0,17.164,0h0.132l0.115-0.283
	c0.406-0.229,0.699-0.658,0.884-1.036c0.186-0.377,0.232-0.9,0.232-1.33v-0.019v-0.002
	C104.087,100.512,104.079,98.122,104.079,95.731z M99.951,89.572c0.002,0,0.004,0,0.006,0c0.134,0,0.234-0.185,0.29-0.171
	l0.058-0.077l-0.109,0.01c0.012,0.05-0.108,0.087-0.108,0.207v0.021c0,1.881-0.027,3.762-0.027,5.644c0,1.92,0.027,3.84,0.027,5.76
	v0.034c0,0.159,0.117,0.267,0.1,0.321l0.028,0.133c-0.031,0.018-0.096,0.119-0.312,0.119c-0.008,0-0.016,0-0.024,0h-0.033
	c-1.967,0-3.934-0.025-5.901-0.025c-1.808,0-3.617,0.025-5.426,0.025h-0.025c-0.003,0-0.006,0-0.008,0
	c-0.144,0-0.243-0.086-0.294-0.101l-0.055-0.056c-0.009-0.011-0.05-0.155-0.05-0.377v-0.063v-0.002c0-0.83,0.028-1.733,0.028-2.56
	c0-0.924,0.001-1.841-0.001-2.841h-0.027v-0.351c0-1.059,0.013-2.12,0.013-3.183c0-0.827-0.013-1.655-0.013-2.484v-0.007v-0.002
	v-0.042c0-0.122,0.021-0.209,0.032-0.253l0.015,0.163c0.023-0.011,0.119,0.159,0.277,0.159c0.004,0,0.008,0,0.012,0h0.016
	c1.737,0,3.475,0.02,5.213,0.02c2.092,0,4.185-0.02,6.277-0.02H99.951z M65.78,70.848L65.78,70.848l-0.001-0.014L65.78,70.848z
	 M59.168,40.572c-0.002,0-0.004,0-0.005,0c-0.135,0-0.234-0.244-0.289-0.258l-0.057-0.137l0.135-0.118
	c-0.012-0.051,0.135-0.195,0.135-0.315v-0.015v-0.004c0-1.834,0.023-3.669,0.023-5.503c0-1.969-0.023-3.937-0.023-5.905v-0.01
	v-0.009v-0.009c0-0.147-0.147-0.255-0.132-0.316L58.9,27.905h-0.04l0.054-0.168c0.055-0.013,0.126-0.165,0.251-0.165
	c0.002,0,0.003,0,0.005,0h0.024c1.939,0,3.879,0.023,5.818,0.023c1.892,0,3.783-0.023,5.675-0.023h0.003h0.012
	c0.003,0,0.005,0,0.008,0c0.127,0,0.211,0.158,0.25,0.17l0.025,0.081l0.053,0.097c0.01,0.05,0.051,0.166,0.051,0.271v0.043
	c0,0.845-0.051,1.733-0.051,2.576c0,0.907-0.03,1.762-0.029,2.762h0.08v0.412c0,1.073-0.013,2.148-0.013,3.225
	c0,0.841,0.013,1.683,0.013,2.526v0.049c0,0.122-0.048,0.209-0.059,0.253l-0.029,0.265c-0.024,0.011-0.133,0.269-0.291,0.269
	c-0.004,0-0.008,0-0.012,0H70.68c-1.744,0-3.488-0.02-5.231-0.02c-2.086,0-4.173,0.02-6.259,0.02H59.168z M70.695,89.572
	c0.003,0,0.006,0,0.009,0c0.118,0,0.201-0.184,0.241-0.172l0.028-0.088l0.057,0.009c0.011,0.05,0.058,0.083,0.058,0.193v0.019
	h-0.038c-0.011,1.662,0,3.324,0,4.986c0,2.199,0.037,4.397,0.037,6.595v0.013c0,0.121-0.047,0.204-0.058,0.243l-0.026,0.096
	c-0.022,0.01-0.128,0.104-0.277,0.104c-0.004,0-0.008,0-0.012,0H70.7c-2.201,0-4.402-0.019-6.604-0.019
	c-1.66,0-3.321,0.019-4.982,0.019H59.1c-0.001,0-0.003,0-0.004,0c-0.132,0-0.22-0.09-0.26-0.102l-0.024-0.047l0.137-0.084
	c-0.01-0.054,0.139-0.158,0.139-0.27v-0.013v-0.006c0-2.058,0.02-4.116,0.02-6.175c0-1.748-0.02-3.496-0.02-5.244v-0.01v-0.008
	v-0.003c0-0.146-0.143-0.25-0.127-0.308c0.031-0.091-0.056,0.136-0.044,0.123c0.014-0.011,0.036,0.149,0.234,0.149
	c0.005,0,0.01,0,0.015,0h0.056c0.815,0,1.63,0.016,2.444,0.016c1.08,0,2.157-0.016,3.232-0.016h0.19v-0.378
	c1,0.002,1.974,0.201,2.886,0.201c0.84,0,1.837,0.176,2.68,0.176H70.695z M41.306,89.572c0.003,0,0.005,0,0.008,0
	c0.135,0,0.228-0.181,0.277-0.167l0.049-0.077l0.2-0.047c0.008,0.004,0.247,0.064,0.247,0.301v0.017
	c0,1.882-0.016,3.765-0.016,5.647c0,1.949,0.016,3.897,0.016,5.846v0.008v0.003c0,0.12-0.21,0.206-0.222,0.251l-0.113,0.037
	l-0.093,0.087c-0.042,0.01-0.166,0.092-0.268,0.092h-0.01c-1.955,0-3.911-0.016-5.866-0.016c-1.904,0-3.808,0.016-5.711,0.016
	h-0.012c-0.001,0-0.003,0-0.004,0c-0.126,0-0.214-0.086-0.258-0.099l-0.042-0.053l-0.201-0.083
	c-0.011-0.048-0.199-0.144-0.199-0.247v-0.032v-0.001c0-0.856,0.011-1.712,0.011-2.567c0-1.091-0.011-2.181-0.011-3.268v-0.003
	v-0.103c0-1.018,0.011-2.037,0.011-3.059c0-0.833-0.011-1.668-0.011-2.503v-0.012v-0.026c0-0.122,0.191-0.209,0.203-0.253
	l0.104-0.039l0.106,0.174c0.048-0.011,0.171,0.175,0.277,0.175c0.002,0,0.003,0,0.005,0h0.013c1.936,0,3.871,0.019,5.807,0.019
	c1.896,0,3.792-0.019,5.688-0.019H41.306z"/>
</svg>
