<?xml version="1.0" encoding="iso-8859-1"?>
<!-- Generator: Adobe Illustrator 17.0.0, SVG Export Plug-In . SVG Version: 6.00 Build 0)  -->
<!DOCTYPE svg PUBLIC "-//W3C//DTD SVG 1.1//EN" "http://www.w3.org/Graphics/SVG/1.1/DTD/svg11.dtd">
<svg version="1.1" id="Layer_1" xmlns="http://www.w3.org/2000/svg" xmlns:xlink="http://www.w3.org/1999/xlink" x="0px" y="0px"
	 width="130px" height="130px" viewBox="0 0 130 130" style="enable-background:new 0 0 130 130;" xml:space="preserve">
<g style="opacity:0.8;">
	<path style="fill:#CCCCCC;" d="M100.825,64.884c0,10.988-3.888,20.368-11.662,28.144c-7.774,7.774-17.157,11.661-28.144,11.661
		c-10.988,0-20.368-3.887-28.143-11.661c-7.774-7.775-11.662-17.155-11.662-28.144c0-10.986,3.888-20.369,11.662-28.144
		S50.031,25.079,61.02,25.079c10.986,0,20.369,3.888,28.144,11.662S100.825,53.898,100.825,64.884z M95.85,64.884
		c0-9.641-3.396-17.854-10.185-24.646c-6.79-6.788-15.005-10.185-24.646-10.185c-9.64,0-17.856,3.396-24.645,10.185
		C29.585,47.03,26.19,55.244,26.19,64.884c0,9.64,3.395,17.881,10.185,24.723c6.788,6.841,15.005,10.262,24.645,10.262
		c9.641,0,17.855-3.421,24.646-10.262C92.453,82.765,95.85,74.524,95.85,64.884z M80.223,63.096c0.467,0.466,0.7,1.063,0.7,1.788
		c0,0.726-0.233,1.321-0.7,1.788c-0.466,0.466-1.063,0.699-1.788,0.699H63.508v14.927c0,0.727-0.233,1.322-0.699,1.788
		c-0.467,0.467-1.064,0.7-1.789,0.7c-0.726,0-1.321-0.233-1.788-0.7c-0.466-0.466-0.699-1.062-0.699-1.788V67.372H43.605
		c-0.727,0-1.322-0.233-1.788-0.699c-0.467-0.467-0.7-1.063-0.7-1.788c0-0.725,0.233-1.322,0.7-1.788
		c0.466-0.467,1.062-0.7,1.788-0.7h14.927V47.469c0-0.725,0.233-1.322,0.699-1.788c0.467-0.467,1.063-0.7,1.788-0.7
		c0.725,0,1.322,0.233,1.789,0.7c0.466,0.466,0.699,1.063,0.699,1.788v14.927h14.927C79.159,62.396,79.757,62.629,80.223,63.096z"/>
</g>
</svg>
