<?xml version="1.0" encoding="iso-8859-1"?>
<!-- Generator: Adobe Illustrator 17.0.0, SVG Export Plug-In . SVG Version: 6.00 Build 0)  -->
<!DOCTYPE svg PUBLIC "-//W3C//DTD SVG 1.1//EN" "http://www.w3.org/Graphics/SVG/1.1/DTD/svg11.dtd">
<svg version="1.1" id="Layer_1" xmlns="http://www.w3.org/2000/svg" xmlns:xlink="http://www.w3.org/1999/xlink" x="0px" y="0px"
	 width="130px" height="130px" viewBox="0 0 130 130" style="enable-background:new 0 0 130 130;" xml:space="preserve">
<g style="opacity:0.8;">
	<path style="fill:#CCCCCC;" d="M62.264,72.814c1.346,2.903,1.734,5.936,1.166,9.096c-0.57,3.163-2.049,5.936-4.432,8.319
		l-9.951,9.795c-3.215,3.11-7.051,4.665-11.506,4.665c-4.459,0-8.268-1.582-11.43-4.742c-3.162-3.161-4.742-6.971-4.742-11.429
		c0-4.456,1.555-8.241,4.666-11.351l9.795-10.106c3.213-3.212,7.049-4.82,11.506-4.82c2.385,0,4.666,0.52,6.842,1.555l-3.887,3.888
		c-1.037-0.312-2.021-0.467-2.955-0.467c-3.109,0-5.752,1.088-7.93,3.266l-9.795,10.106c-2.178,2.177-3.266,4.82-3.266,7.93
		c0,3.11,1.088,5.753,3.266,7.93c2.176,2.177,4.82,3.266,7.93,3.266s5.752-1.089,7.93-3.266l10.107-9.796
		c2.693-2.799,3.627-6.114,2.799-9.951L62.264,72.814z M44.383,78.567l30.164-30.476c1.139-1.14,2.307-1.113,3.498,0.077
		c1.191,1.193,1.166,2.359-0.076,3.499l-30.166,30.32c-0.416,0.52-0.959,0.777-1.633,0.777c-0.676,0-1.27-0.233-1.787-0.7
		c-0.521-0.466-0.777-1.062-0.777-1.788C43.605,79.553,43.861,78.982,44.383,78.567z M96.316,52.6L86.209,62.707
		c-3.109,3.11-6.895,4.665-11.352,4.665c-2.385,0-4.457-0.362-6.219-1.088l4.043-3.888c0.207,0,0.932,0,2.176,0
		c3.006,0,5.598-1.089,7.775-3.266l10.107-9.951c2.176-2.177,3.264-4.82,3.264-7.93s-1.088-5.753-3.264-7.93
		c-2.178-2.177-4.82-3.266-7.932-3.266c-3.109,0-5.752,1.089-7.93,3.266l-10.105,9.796c-3.008,3.109-3.889,6.79-2.645,11.039
		l-3.887,3.888c-1.453-3.006-1.92-6.22-1.4-9.641c0.518-3.421,2.021-6.375,4.51-8.862l9.951-9.796
		c3.213-3.11,7.049-4.665,11.506-4.665s8.266,1.582,11.43,4.742c3.16,3.163,4.742,6.973,4.742,11.429
		C100.98,45.708,99.426,49.491,96.316,52.6z"/>
</g>
</svg>
