<?xml version="1.0" encoding="iso-8859-1"?>
<!-- Generator: Adobe Illustrator 17.0.0, SVG Export Plug-In . SVG Version: 6.00 Build 0)  -->
<!DOCTYPE svg PUBLIC "-//W3C//DTD SVG 1.1//EN" "http://www.w3.org/Graphics/SVG/1.1/DTD/svg11.dtd">
<svg version="1.1" id="Layer_1" xmlns="http://www.w3.org/2000/svg" xmlns:xlink="http://www.w3.org/1999/xlink" x="0px" y="0px"
	 width="130px" height="130px" viewBox="0 0 130 130" style="enable-background:new 0 0 130 130;" xml:space="preserve">
<g style="opacity:0.8;">
	<path style="fill:#CCCCCC;" d="M96.715,28.83c1.053,0.816,1.582,1.896,1.582,3.238v55.974c0,1.151-0.385,2.23-1.15,3.238
		c-0.77,1.007-1.729,1.654-2.879,1.942l-30.361,8.201c-0.77,0.191-1.68,0.288-2.734,0.288c-1.15,0-2.111-0.097-2.877-0.288
		L28.51,93.223c-1.057-0.288-1.969-0.936-2.734-1.942c-0.77-1.008-1.152-2.087-1.152-3.238V32.068c0-1.343,0.527-2.422,1.584-3.238
		c1.055-0.813,2.252-1.029,3.598-0.647l29.641,8.202c0.383,0.097,0.936,0.144,1.654,0.144c0.721,0,1.271-0.047,1.656-0.144
		l30.361-8.202C94.459,27.801,95.656,28.017,96.715,28.83z M59.158,40.989c-0.385,0-0.672-0.047-0.863-0.144l-29.066-8.059v55.255
		c0,0.385,0.191,0.625,0.576,0.72l29.354,8.058V40.989z M54.41,50.99c0.287,0.528,0.334,1.079,0.143,1.654
		c-0.287,1.151-1.006,1.727-2.158,1.727c-0.193,0-0.385,0-0.574,0l-16.117-4.604c-0.672-0.19-1.15-0.551-1.438-1.079
		c-0.289-0.526-0.361-1.102-0.217-1.727c0.145-0.623,0.504-1.102,1.08-1.438c0.574-0.335,1.15-0.407,1.727-0.216l16.115,4.604
		C53.641,50.104,54.121,50.464,54.41,50.99z M54.41,64.804c0.287,0.528,0.334,1.079,0.143,1.654
		c-0.287,1.151-1.006,1.728-2.158,1.728c-0.193,0-0.385,0-0.574,0L35.703,63.58c-0.672-0.19-1.15-0.551-1.438-1.079
		c-0.289-0.525-0.361-1.102-0.217-1.727c0.145-0.623,0.504-1.102,1.08-1.438c0.574-0.335,1.15-0.407,1.727-0.216l16.115,4.604
		C53.641,63.918,54.121,64.277,54.41,64.804z M54.41,78.617c0.287,0.528,0.334,1.079,0.143,1.655
		c-0.287,1.15-1.006,1.727-2.158,1.727c-0.193,0-0.385,0-0.574,0l-16.117-4.604c-0.672-0.191-1.15-0.551-1.438-1.079
		c-0.289-0.526-0.361-1.103-0.217-1.728c0.145-0.622,0.504-1.102,1.08-1.438c0.574-0.335,1.15-0.407,1.727-0.216l16.115,4.604
		C53.641,77.731,54.121,78.091,54.41,78.617z M93.691,32.787l-29.785,8.059h-0.145v55.83l29.355-7.914
		c0.381-0.095,0.574-0.335,0.574-0.72V32.787z M68.654,52.645c-0.193-0.575-0.143-1.126,0.145-1.654
		c0.287-0.526,0.768-0.886,1.439-1.079l16.115-4.604c0.576-0.191,1.15-0.119,1.727,0.216c0.576,0.337,0.936,0.815,1.08,1.438
		c0.143,0.625,0.072,1.2-0.217,1.727c-0.287,0.528-0.77,0.889-1.439,1.079l-16.115,4.604c-0.193,0-0.385,0-0.576,0
		C69.662,54.371,68.943,53.796,68.654,52.645z M68.654,66.458c-0.193-0.575-0.143-1.126,0.145-1.654
		c0.287-0.526,0.768-0.886,1.439-1.079l16.115-4.604c0.576-0.191,1.15-0.119,1.727,0.216c0.576,0.337,0.936,0.815,1.08,1.438
		c0.143,0.625,0.072,1.201-0.217,1.727c-0.287,0.528-0.77,0.889-1.439,1.079l-16.115,4.605c-0.193,0-0.385,0-0.576,0
		C69.662,68.186,68.943,67.609,68.654,66.458z M68.654,80.272c-0.193-0.576-0.143-1.127,0.145-1.655
		c0.287-0.526,0.768-0.886,1.439-1.079l16.115-4.604c0.576-0.191,1.15-0.119,1.727,0.216c0.576,0.337,0.936,0.816,1.08,1.438
		c0.143,0.625,0.072,1.201-0.217,1.728c-0.287,0.528-0.77,0.888-1.439,1.079l-16.115,4.604c-0.193,0-0.385,0-0.576,0
		C69.662,81.999,68.943,81.423,68.654,80.272z"/>
</g>
</svg>
