<?xml version="1.0" encoding="iso-8859-1"?>
<!-- Generator: Adobe Illustrator 17.0.0, SVG Export Plug-In . SVG Version: 6.00 Build 0)  -->
<!DOCTYPE svg PUBLIC "-//W3C//DTD SVG 1.1//EN" "http://www.w3.org/Graphics/SVG/1.1/DTD/svg11.dtd">
<svg version="1.1" id="Layer_1" xmlns="http://www.w3.org/2000/svg" xmlns:xlink="http://www.w3.org/1999/xlink" x="0px" y="0px"
	 width="130px" height="130px" viewBox="0 0 130 130" style="enable-background:new 0 0 130 130;" xml:space="preserve">
<g style="opacity:0.8;">
	<path style="fill:#CCCCCC;" d="M103.96,72.792c0.1,0.408,0.152,0.816,0.152,1.223v21.084c0,1.833-0.638,3.388-1.91,4.66
		c-1.274,1.272-2.826,1.909-4.659,1.909h-6.417c-1.834,0-3.388-0.637-4.66-1.909c-1.274-1.272-1.909-2.827-1.909-4.66V74.015
		c0-1.834,0.635-3.386,1.909-4.66c1.272-1.272,2.826-1.91,4.66-1.91h6.417c0.508,0,1.017,0.053,1.527,0.153
		c-0.103-2.239-0.205-3.717-0.306-4.431c-0.916-8.656-4.56-15.813-10.924-21.466c-6.366-5.653-13.93-8.479-22.688-8.479
		c-9.066,0-16.882,3.132-23.452,9.396c-6.569,6.265-10.109,14.032-10.618,23.3c0,0.103,0,0.332,0,0.688c0,0.358,0,0.688,0,0.993
		c0.406-0.101,0.864-0.153,1.375-0.153h6.569c1.731,0,3.232,0.638,4.508,1.91c1.272,1.274,1.909,2.826,1.909,4.66v21.236
		c0,1.733-0.637,3.235-1.909,4.508c-1.275,1.272-2.776,1.909-4.508,1.909h-6.569c-1.833,0-3.388-0.637-4.66-1.909
		c-1.274-1.272-1.909-2.774-1.909-4.508v-21.39c0-0.405,0.05-0.864,0.152-1.375v-1.069c0-1.322,0.101-3.208,0.306-5.653
		c0.509-10.694,4.507-19.605,11.993-26.736c7.486-7.129,16.425-10.695,26.813-10.695c10.084,0,18.74,3.235,25.974,9.702
		c7.23,6.469,11.406,14.693,12.528,24.674c0.306,2.751,0.458,5.858,0.458,9.32C104.112,72.233,104.06,72.486,103.96,72.792z
		 M31.234,72.792c-0.305,0.306-0.458,0.714-0.458,1.223v21.236c0,0.408,0.153,0.765,0.458,1.069
		c0.306,0.306,0.712,0.459,1.223,0.459h6.569c0.406,0,0.765-0.153,1.07-0.459c0.305-0.305,0.458-0.661,0.458-1.069V74.015
		c0-0.509-0.153-0.917-0.458-1.223c-0.306-0.306-0.664-0.458-1.07-0.458h-6.569C31.946,72.334,31.54,72.486,31.234,72.792z
		 M99.224,74.015c0-0.509-0.153-0.917-0.459-1.223s-0.714-0.458-1.222-0.458h-6.417c-0.511,0-0.917,0.152-1.223,0.458
		s-0.458,0.714-0.458,1.223v21.084c0,0.511,0.152,0.917,0.458,1.222c0.306,0.306,0.712,0.459,1.223,0.459h6.417
		c0.508,0,0.916-0.153,1.222-0.459c0.306-0.305,0.459-0.711,0.459-1.222V74.015z"/>
</g>
</svg>
