<?xml version="1.0" encoding="iso-8859-1"?>
<!-- Generator: Adobe Illustrator 17.0.0, SVG Export Plug-In . SVG Version: 6.00 Build 0)  -->
<!DOCTYPE svg PUBLIC "-//W3C//DTD SVG 1.1//EN" "http://www.w3.org/Graphics/SVG/1.1/DTD/svg11.dtd">
<svg version="1.1" id="Layer_1" xmlns="http://www.w3.org/2000/svg" xmlns:xlink="http://www.w3.org/1999/xlink" x="0px" y="0px"
	 width="130px" height="130px" viewBox="0 0 130 130" style="enable-background:new 0 0 130 130;" xml:space="preserve">
<g style="opacity:0.8;">
	<path style="fill:#CCCCCC;" d="M102.661,27.339c0.967,0.97,1.451,2.115,1.451,3.438v68.447c0,1.322-0.484,2.469-1.451,3.438
		c-0.97,0.967-2.115,1.451-3.438,1.451H30.776c-1.325,0-2.471-0.484-3.438-1.451c-0.969-0.969-1.451-2.115-1.451-3.438V30.776
		c0-1.322,0.482-2.468,1.451-3.438c0.967-0.967,2.112-1.451,3.438-1.451h68.447C100.546,25.888,101.691,26.372,102.661,27.339z
		 M99.224,30.776H30.776v68.447h68.447V30.776z M41.241,52.09c-0.457-0.458-0.688-1.017-0.688-1.681c0-0.661,0.23-1.246,0.688-1.757
		c0.459-0.509,1.044-0.764,1.758-0.764h4.889v-4.89c0-0.61,0.229-1.169,0.688-1.681c0.459-0.508,1.043-0.764,1.758-0.764
		c0.711,0,1.299,0.256,1.756,0.764c0.459,0.512,0.688,1.07,0.688,1.681v4.89h4.89c0.712,0,1.299,0.255,1.757,0.764
		c0.459,0.511,0.688,1.096,0.688,1.757c0,0.664-0.229,1.223-0.688,1.681c-0.458,0.459-1.045,0.688-1.757,0.688h-4.89v4.89
		c0,0.714-0.229,1.298-0.688,1.757c-0.457,0.458-1.045,0.688-1.756,0.688c-0.715,0-1.299-0.229-1.758-0.688
		c-0.458-0.459-0.688-1.043-0.688-1.757v-4.89h-4.889C42.285,52.777,41.7,52.549,41.241,52.09z M59.041,74.473l-5.194,5.194
		l5.194,5.195c1.12,1.122,1.093,2.268-0.076,3.438c-1.173,1.172-2.317,1.198-3.438,0.076l-5.194-5.194l-5.195,5.194
		c-1.121,1.122-2.268,1.096-3.438-0.076c-1.172-1.17-1.198-2.315-0.076-3.438l5.194-5.195l-5.194-5.194
		c-1.122-1.119-1.096-2.266,0.076-3.438c1.17-1.17,2.316-1.146,3.438,0.076l5.195,5.195l5.194-5.195
		c1.12-1.222,2.265-1.246,3.438-0.076C60.134,72.207,60.161,73.354,59.041,74.473z M70.576,52.09
		c-0.458-0.458-0.688-1.017-0.688-1.681c0-0.661,0.229-1.246,0.688-1.757c0.458-0.509,1.044-0.764,1.757-0.764h14.668
		c0.711,0,1.299,0.255,1.756,0.764c0.459,0.511,0.688,1.096,0.688,1.757c0,0.664-0.229,1.223-0.688,1.681
		c-0.457,0.459-1.045,0.688-1.756,0.688H72.333C71.62,52.777,71.034,52.549,70.576,52.09z M70.576,76.535
		c-0.458-0.458-0.688-1.017-0.688-1.681c0-0.661,0.229-1.246,0.688-1.757c0.458-0.509,1.044-0.764,1.757-0.764h14.668
		c0.711,0,1.299,0.255,1.756,0.764c0.459,0.511,0.688,1.096,0.688,1.757c0,0.664-0.229,1.223-0.688,1.681
		c-0.457,0.459-1.045,0.688-1.756,0.688H72.333C71.62,77.223,71.034,76.994,70.576,76.535z M70.576,86.313
		c-0.458-0.458-0.688-1.017-0.688-1.681c0-0.661,0.229-1.246,0.688-1.757c0.458-0.509,1.044-0.764,1.757-0.764h14.668
		c0.711,0,1.299,0.255,1.756,0.764c0.459,0.511,0.688,1.096,0.688,1.757c0,0.664-0.229,1.223-0.688,1.681
		c-0.457,0.458-1.045,0.688-1.756,0.688H72.333C71.62,87.001,71.034,86.771,70.576,86.313z"/>
</g>
</svg>
