<?xml version="1.0" encoding="iso-8859-1"?>
<!-- Generator: Adobe Illustrator 17.0.0, SVG Export Plug-In . SVG Version: 6.00 Build 0)  -->
<!DOCTYPE svg PUBLIC "-//W3C//DTD SVG 1.1//EN" "http://www.w3.org/Graphics/SVG/1.1/DTD/svg11.dtd">
<svg version="1.1" id="Layer_1" xmlns="http://www.w3.org/2000/svg" xmlns:xlink="http://www.w3.org/1999/xlink" x="0px" y="0px"
	 width="130px" height="130px" viewBox="0 0 130 130" style="enable-background:new 0 0 130 130;" xml:space="preserve">
<path style="opacity:0.8;fill:#CCCCCC;" d="M101.926,99.983H28.074c-4.293,0-7.774-3.481-7.774-7.774V37.791
	c0-4.293,3.481-7.774,7.774-7.774h73.852c4.293,0,7.774,3.481,7.774,7.774v54.417C109.7,96.502,106.219,99.983,101.926,99.983z
	 M41.678,33.904H28.074c-2.146,0-3.887,1.741-3.887,3.887v3.887h17.491V33.904z M63.057,33.904H45.565v7.774h17.491V33.904z
	 M84.435,33.904H66.944v7.774h17.491V33.904z M105.813,37.791c0-2.146-1.741-3.887-3.887-3.887H88.322v7.774h17.491l0,0V37.791z
	 M105.813,45.565L105.813,45.565H24.187v38.869h81.626l0,0V45.565z M105.813,88.322L105.813,88.322H88.322v7.774h-3.887v-7.774
	H66.944v7.774h-3.887v-7.774H45.565v7.774h-3.887v-7.774H24.187v3.887c0,2.146,1.741,3.887,3.887,3.887h73.852
	c2.146,0,3.887-1.741,3.887-3.887V88.322z M60.377,76.204c-0.334,0.27-0.744,0.457-1.207,0.457c-1.075,0-1.944-0.869-1.944-1.943
	V55.283c0-1.073,0.869-1.944,1.944-1.944c0.414,0,0.777,0.159,1.094,0.381l15.103,9.469c0.75,0.266,1.294,0.968,1.294,1.811
	c0,0.632-0.321,1.168-0.787,1.522L60.377,76.204z"/>
</svg>
