<?xml version="1.0" encoding="iso-8859-1"?>
<!-- Generator: Adobe Illustrator 17.0.0, SVG Export Plug-In . SVG Version: 6.00 Build 0)  -->
<!DOCTYPE svg PUBLIC "-//W3C//DTD SVG 1.1//EN" "http://www.w3.org/Graphics/SVG/1.1/DTD/svg11.dtd">
<svg version="1.1" id="Layer_1" xmlns="http://www.w3.org/2000/svg" xmlns:xlink="http://www.w3.org/1999/xlink" x="0px" y="0px"
	 width="130px" height="130px" viewBox="0 0 130 130" style="enable-background:new 0 0 130 130;" xml:space="preserve">
<path style="opacity:0.8;fill:#CCCCCC;" d="M82.491,109.7H47.509c-4.293,0-7.774-3.481-7.774-7.774V28.074
	c0-4.293,3.481-7.774,7.774-7.774h34.983c4.293,0,7.774,3.481,7.774,7.774v73.852C90.265,106.219,86.784,109.7,82.491,109.7z
	 M86.378,28.074c0-2.146-1.741-3.887-3.887-3.887H47.509c-2.146,0-3.887,1.741-3.887,3.887v7.774h42.756V28.074z M86.378,39.735
	H43.622v50.53h42.756V39.735z M86.378,94.152H43.622v7.774c0,2.146,1.741,3.887,3.887,3.887h34.983c2.146,0,3.887-1.741,3.887-3.887
	V94.152z M65,103.869c-2.146,0-3.887-1.741-3.887-3.887s1.741-3.887,3.887-3.887s3.887,1.741,3.887,3.887S67.146,103.869,65,103.869
	z M51.396,45.565h3.887c1.075,0,1.944,0.871,1.944,1.944v3.887c0,1.073-0.869,1.943-1.944,1.943h-3.887
	c-1.075,0-1.943-0.871-1.943-1.943v-3.887C49.452,46.436,50.321,45.565,51.396,45.565z M51.396,59.17h3.887
	c1.075,0,1.944,0.871,1.944,1.943V65c0,1.075-0.869,1.943-1.944,1.943h-3.887c-1.075,0-1.943-0.869-1.943-1.943v-3.887
	C49.452,60.04,50.321,59.17,51.396,59.17z M51.396,72.774h3.887c1.075,0,1.944,0.869,1.944,1.944v3.887
	c0,1.075-0.869,1.943-1.944,1.943h-3.887c-1.075,0-1.943-0.869-1.943-1.943v-3.887C49.452,73.643,50.321,72.774,51.396,72.774z
	 M63.056,45.565h3.887c1.075,0,1.944,0.871,1.944,1.944v3.887c0,1.073-0.869,1.943-1.944,1.943h-3.887
	c-1.075,0-1.944-0.871-1.944-1.943v-3.887C61.113,46.436,61.982,45.565,63.056,45.565z M63.056,59.17h3.887
	c1.075,0,1.944,0.871,1.944,1.943V65c0,1.075-0.869,1.943-1.944,1.943h-3.887c-1.075,0-1.944-0.869-1.944-1.943v-3.887
	C61.113,60.04,61.982,59.17,63.056,59.17z M63.056,72.774h3.887c1.075,0,1.944,0.869,1.944,1.944v3.887
	c0,1.075-0.869,1.943-1.944,1.943h-3.887c-1.075,0-1.944-0.869-1.944-1.943v-3.887C61.113,73.643,61.982,72.774,63.056,72.774z
	 M74.717,45.565h3.887c1.075,0,1.943,0.871,1.943,1.944v3.887c0,1.073-0.869,1.943-1.943,1.943h-3.887
	c-1.075,0-1.943-0.871-1.943-1.943v-3.887C72.774,46.436,73.643,45.565,74.717,45.565z M74.717,59.17h3.887
	c1.075,0,1.943,0.871,1.943,1.943V65c0,1.075-0.869,1.943-1.943,1.943h-3.887c-1.075,0-1.943-0.869-1.943-1.943v-3.887
	C72.774,60.04,73.643,59.17,74.717,59.17z M59.17,28.074H70.83c1.075,0,1.944,0.871,1.944,1.944s-0.869,1.943-1.944,1.943H59.17
	c-1.075,0-1.944-0.871-1.944-1.943S58.095,28.074,59.17,28.074z"/>
</svg>
