<?xml version="1.0" encoding="iso-8859-1"?>
<!-- Generator: Adobe Illustrator 17.0.0, SVG Export Plug-In . SVG Version: 6.00 Build 0)  -->
<!DOCTYPE svg PUBLIC "-//W3C//DTD SVG 1.1//EN" "http://www.w3.org/Graphics/SVG/1.1/DTD/svg11.dtd">
<svg version="1.1" id="Layer_1" xmlns="http://www.w3.org/2000/svg" xmlns:xlink="http://www.w3.org/1999/xlink" x="0px" y="0px"
	 width="130px" height="130px" viewBox="0 0 130 130" style="enable-background:new 0 0 130 130;" xml:space="preserve">
<g style="opacity:0.8;">
	<path style="fill:#CCCCCC;" d="M55.222,60.111H30.776c-1.325,0-2.471-0.482-3.438-1.451c-0.969-0.967-1.451-2.113-1.451-3.438
		V30.776c0-1.322,0.482-2.468,1.451-3.438c0.967-0.967,2.112-1.451,3.438-1.451h24.445c1.322,0,2.469,0.484,3.438,1.451
		c0.967,0.97,1.452,2.115,1.452,3.438v24.445c0,1.325-0.485,2.472-1.452,3.438C57.69,59.629,56.544,60.111,55.222,60.111z
		 M55.222,104.112H30.776c-1.325,0-2.471-0.484-3.438-1.451c-0.969-0.969-1.451-2.115-1.451-3.438V74.778
		c0-1.322,0.482-2.469,1.451-3.438c0.967-0.967,2.112-1.451,3.438-1.451h24.445c1.322,0,2.469,0.484,3.438,1.451
		c0.967,0.969,1.452,2.115,1.452,3.438v24.445c0,1.322-0.485,2.469-1.452,3.438C57.69,103.628,56.544,104.112,55.222,104.112z
		 M55.222,30.776H30.776v24.445h24.445V30.776z M55.222,74.778H30.776v24.445h24.445V74.778z M99.224,60.111H74.778
		c-1.325,0-2.471-0.482-3.438-1.451c-0.97-0.967-1.452-2.113-1.452-3.438V30.776c0-1.322,0.482-2.468,1.452-3.438
		c0.967-0.967,2.112-1.451,3.438-1.451h24.445c1.322,0,2.468,0.484,3.438,1.451c0.967,0.97,1.451,2.115,1.451,3.438v24.445
		c0,1.325-0.484,2.472-1.451,3.438C101.691,59.629,100.546,60.111,99.224,60.111z M99.224,104.112H74.778
		c-1.325,0-2.471-0.484-3.438-1.451c-0.97-0.969-1.452-2.115-1.452-3.438V74.778c0-1.322,0.482-2.469,1.452-3.438
		c0.967-0.967,2.112-1.451,3.438-1.451h24.445c1.322,0,2.468,0.484,3.438,1.451c0.967,0.969,1.451,2.115,1.451,3.438v24.445
		c0,1.322-0.484,2.469-1.451,3.438C101.691,103.628,100.546,104.112,99.224,104.112z M99.224,30.776H74.778v24.445h24.445V30.776z
		 M99.224,74.778H74.778v24.445h24.445V74.778z"/>
</g>
</svg>
